<?xml version="1.0" encoding="UTF-8" standalone="no"?>
<svg id="svg4320" xmlns:rdf="http://www.w3.org/1999/02/22-rdf-syntax-ns#" xmlns="http://www.w3.org/2000/svg" height="316.08" viewBox="0 0 759.97279 316.08641" width="759.98" version="1.1" xmlns:cc="http://creativecommons.org/ns#" xmlns:dc="http://purl.org/dc/elements/1.1/">
<g id="g8914" stroke-linejoin="round" transform="translate(33.103 -41.525)">
<path id="path8906" d="m652.26 162.59c-4.6019-1.9085-14.573 4.0734-50.295 29.514-7.5482 5.3756-21.945 15.164-31.994 21.754-27.616 18.109-28.253 19.386-18.174 36.603 6.2927 10.749 6.2621 10.655 4.2087 12.273-13.14 10.353-41.529 24.525-51.049 25.485-19.485 1.963-25.088-3.9456-22.865-24.108 1.9614-17.79 1.7941-18.003-15.575-19.975-37.772-4.2878-59.647-15.961-87.918-46.915-30.822-33.746-41.533-44.852-52.153-54.071-10.751-9.3327-13.121-11.057-30.683-22.332-9.2047-5.9092-17.982-11.624-19.506-12.701-21.139-14.937-56.313-25.537-86.506-26.068-28.223-0.49726-25.118-6.8149-29.569 60.163-1.135 17.077-2.5004 31.632-3.0931 32.988-1.0486 2.3979-14.773 20.409-17.871 23.454-2.3719 2.3307 1.9446 3.2732-70.217-15.348-26.426-6.8191-27.412-6.9888-30.155-5.2024-2.7677 1.8026-24.256 33.105-26.961 39.273-5.8692 13.385-6.8776 82.898-1.3163 90.98 3.1752 4.6204 7.0926 4.6057 43.858-0.17145 18.426-2.3941 47.354-6.0286 64.284-8.0776 43.735-5.2921 41.054-3.423 40.274-28.069-1.1848-37.485-0.99861-41.052 2.7286-52.01 2.2724-6.6808 2.7396-7.6229 7.0994-14.319 19.489-29.932 65.446-34.371 90.743-8.7644 12.633 12.788 31.77 66.736 29.966 78.816-1.8068 12.095-7.4319 10.377 71.626 21.855 36.4 5.2846 80.62 11.737 98.266 14.337 64.168 9.4592 65.324 9.2381 112.62-21.478 15.082-9.7962 27.537-18.071 27.676-18.389 0.13913-0.31814 4.277-3.2061 9.1948-6.417 84.917-55.442 80.223-61.852 76.33-68.377-1.5237-2.5539-29.328-32.171-32.118-34.212-0.26496-0.19409-0.55106-0.35889-0.85427-0.48458z" stroke="#006400" stroke-width="80.001" fill="#006400"/>
<g fill="none">
<path id="path4330" d="m652.26 162.59c-4.6019-1.9085-14.573 4.0734-50.295 29.514-7.5482 5.3756-21.945 15.164-31.994 21.754-27.616 18.109-28.253 19.386-18.174 36.603 6.2927 10.749 6.2621 10.655 4.2087 12.273-13.14 10.353-41.529 24.525-51.049 25.485-19.485 1.963-25.088-3.9456-22.865-24.108 1.9614-17.79 1.7941-18.003-15.575-19.975-37.772-4.2878-59.647-15.961-87.918-46.915-30.822-33.746-41.533-44.852-52.153-54.071-10.751-9.3327-13.121-11.057-30.683-22.332-9.2047-5.9092-17.982-11.624-19.506-12.701-21.139-14.937-56.313-25.537-86.506-26.068-28.223-0.49726-25.118-6.8149-29.569 60.163-1.135 17.077-2.5004 31.632-3.0931 32.988-1.0486 2.3979-14.773 20.409-17.871 23.454-2.3719 2.3307 1.9446 3.2732-70.217-15.348-26.426-6.8191-27.412-6.9888-30.155-5.2024-2.7677 1.8026-24.256 33.105-26.961 39.273-5.8692 13.385-6.8776 82.898-1.3163 90.98 3.1752 4.6204 7.0926 4.6057 43.858-0.17145 18.426-2.3941 47.354-6.0286 64.284-8.0776 43.735-5.2921 41.054-3.423 40.274-28.069-1.1848-37.485-0.99861-41.052 2.7286-52.01 2.2724-6.6808 2.7396-7.6229 7.0994-14.319 19.489-29.932 65.446-34.371 90.743-8.7644 12.633 12.788 31.77 66.736 29.966 78.816-1.8068 12.095-7.4319 10.377 71.626 21.855 36.4 5.2846 80.62 11.737 98.266 14.337 64.168 9.4592 65.324 9.2381 112.62-21.478 15.082-9.7962 27.537-18.071 27.676-18.389 0.13913-0.31814 4.277-3.2061 9.1948-6.417 84.917-55.442 80.223-61.852 76.33-68.377-1.5237-2.5539-29.328-32.171-32.118-34.212-0.26496-0.19409-0.55106-0.35889-0.85427-0.48458z" stroke="#000" stroke-width="20"/>
<g>
<path id="path8910" d="m652.26 162.59c-4.6019-1.9085-14.573 4.0734-50.295 29.514-7.5482 5.3756-21.945 15.164-31.994 21.754-27.616 18.109-28.253 19.386-18.174 36.603 6.2927 10.749 6.2621 10.655 4.2087 12.273-13.14 10.353-41.529 24.525-51.049 25.485-19.485 1.963-25.088-3.9456-22.865-24.108 1.9614-17.79 1.7941-18.003-15.575-19.975-37.772-4.2878-59.647-15.961-87.918-46.915-30.822-33.746-41.533-44.852-52.153-54.071-10.751-9.3327-13.121-11.057-30.683-22.332-9.2047-5.9092-17.982-11.624-19.506-12.701-21.139-14.937-56.313-25.537-86.506-26.068-28.223-0.49726-25.118-6.8149-29.569 60.163-1.135 17.077-2.5004 31.632-3.0931 32.988-1.0486 2.3979-14.773 20.409-17.871 23.454-2.3719 2.3307 1.9446 3.2732-70.217-15.348-26.426-6.8191-27.412-6.9888-30.155-5.2024-2.7677 1.8026-24.256 33.105-26.961 39.273-5.8692 13.385-6.8776 82.898-1.3163 90.98 3.1752 4.6204 7.0926 4.6057 43.858-0.17145 18.426-2.3941 47.354-6.0286 64.284-8.0776 43.735-5.2921 41.054-3.423 40.274-28.069-1.1848-37.485-0.99861-41.052 2.7286-52.01 2.2724-6.6808 2.7396-7.6229 7.0994-14.319 19.489-29.932 65.446-34.371 90.743-8.7644 12.633 12.788 31.77 66.736 29.966 78.816-1.8068 12.095-7.4319 10.377 71.626 21.855 36.4 5.2846 80.62 11.737 98.266 14.337 64.168 9.4592 65.324 9.2381 112.62-21.478 15.082-9.7962 27.537-18.071 27.676-18.389 0.13913-0.31814 4.277-3.2061 9.1948-6.417 84.917-55.442 80.223-61.852 76.33-68.377-1.5237-2.5539-29.328-32.171-32.118-34.212-0.26496-0.19409-0.55106-0.35889-0.85427-0.48458z" stroke="#f00" stroke-width="26"/>
<path id="path8908" d="m652.26 162.59c-4.6019-1.9085-14.573 4.0734-50.295 29.514-7.5482 5.3756-21.945 15.164-31.994 21.754-27.616 18.109-28.253 19.386-18.174 36.603 6.2927 10.749 6.2621 10.655 4.2087 12.273-13.14 10.353-41.529 24.525-51.049 25.485-19.485 1.963-25.088-3.9456-22.865-24.108 1.9614-17.79 1.7941-18.003-15.575-19.975-37.772-4.2878-59.647-15.961-87.918-46.915-30.822-33.746-41.533-44.852-52.153-54.071-10.751-9.3327-13.121-11.057-30.683-22.332-9.2047-5.9092-17.982-11.624-19.506-12.701-21.139-14.937-56.313-25.537-86.506-26.068-28.223-0.49726-25.118-6.8149-29.569 60.163-1.135 17.077-2.5004 31.632-3.0931 32.988-1.0486 2.3979-14.773 20.409-17.871 23.454-2.3719 2.3307 1.9446 3.2732-70.217-15.348-26.426-6.8191-27.412-6.9888-30.155-5.2024-2.7677 1.8026-24.256 33.105-26.961 39.273-5.8692 13.385-6.8776 82.898-1.3163 90.98 3.1752 4.6204 7.0926 4.6057 43.858-0.17145 18.426-2.3941 47.354-6.0286 64.284-8.0776 43.735-5.2921 41.054-3.423 40.274-28.069-1.1848-37.485-0.99861-41.052 2.7286-52.01 2.2724-6.6808 2.7396-7.6229 7.0994-14.319 19.489-29.932 65.446-34.371 90.743-8.7644 12.633 12.788 31.77 66.736 29.966 78.816-1.8068 12.095-7.4319 10.377 71.626 21.855 36.4 5.2846 80.62 11.737 98.266 14.337 64.168 9.4592 65.324 9.2381 112.62-21.478 15.082-9.7962 27.537-18.071 27.676-18.389 0.13913-0.31814 4.277-3.2061 9.1948-6.417 84.917-55.442 80.223-61.852 76.33-68.377-1.5237-2.5539-29.328-32.171-32.118-34.212-0.26496-0.19409-0.55106-0.35889-0.85427-0.48458z" stroke="#fff" stroke-dasharray="26.00023901, 26.00023901" stroke-width="26"/>
<path id="path8904" d="m652.26 162.59c-4.6019-1.9085-14.573 4.0734-50.295 29.514-7.5482 5.3756-21.945 15.164-31.994 21.754-27.616 18.109-28.253 19.386-18.174 36.603 6.2927 10.749 6.2621 10.655 4.2087 12.273-13.14 10.353-41.529 24.525-51.049 25.485-19.485 1.963-25.088-3.9456-22.865-24.108 1.9614-17.79 1.7941-18.003-15.575-19.975-37.772-4.2878-59.647-15.961-87.918-46.915-30.822-33.746-41.533-44.852-52.153-54.071-10.751-9.3327-13.121-11.057-30.683-22.332-9.2047-5.9092-17.982-11.624-19.506-12.701-21.139-14.937-56.313-25.537-86.506-26.068-28.223-0.49726-25.118-6.8149-29.569 60.163-1.135 17.077-2.5004 31.632-3.0931 32.988-1.0486 2.3979-14.773 20.409-17.871 23.454-2.3719 2.3307 1.9446 3.2732-70.217-15.348-26.426-6.8191-27.412-6.9888-30.155-5.2024-2.7677 1.8026-24.256 33.105-26.961 39.273-5.8692 13.385-6.8776 82.898-1.3163 90.98 3.1752 4.6204 7.0926 4.6057 43.858-0.17145 18.426-2.3941 47.354-6.0286 64.284-8.0776 43.735-5.2921 41.054-3.423 40.274-28.069-1.1848-37.485-0.99861-41.052 2.7286-52.01 2.2724-6.6808 2.7396-7.6229 7.0994-14.319 19.489-29.932 65.446-34.371 90.743-8.7644 12.633 12.788 31.77 66.736 29.966 78.816-1.8068 12.095-7.4319 10.377 71.626 21.855 36.4 5.2846 80.62 11.737 98.266 14.337 64.168 9.4592 65.324 9.2381 112.62-21.478 15.082-9.7962 27.537-18.071 27.676-18.389 0.13913-0.31814 4.277-3.2061 9.1948-6.417 84.917-55.442 80.223-61.852 76.33-68.377-1.5237-2.5539-29.328-32.171-32.118-34.212-0.26496-0.19409-0.55106-0.35889-0.85427-0.48458z" stroke="#141414" stroke-width="20"/>
<path id="path8912" d="m652.26 162.59c-4.6019-1.9085-14.573 4.0734-50.295 29.514-7.5482 5.3756-21.945 15.164-31.994 21.754-27.616 18.109-28.253 19.386-18.174 36.603 6.2927 10.749 6.2621 10.655 4.2087 12.273-13.14 10.353-41.529 24.525-51.049 25.485-19.485 1.963-25.088-3.9456-22.865-24.108 1.9614-17.79 1.7941-18.003-15.575-19.975-37.772-4.2878-59.647-15.961-87.918-46.915-30.822-33.746-41.533-44.852-52.153-54.071-10.751-9.3327-13.121-11.057-30.683-22.332-9.2047-5.9092-17.982-11.624-19.506-12.701-21.139-14.937-56.313-25.537-86.506-26.068-28.223-0.49726-25.118-6.8149-29.569 60.163-1.135 17.077-2.5004 31.632-3.0931 32.988-1.0486 2.3979-14.773 20.409-17.871 23.454-2.3719 2.3307 1.9446 3.2732-70.217-15.348-26.426-6.8191-27.412-6.9888-30.155-5.2024-2.7677 1.8026-24.256 33.105-26.961 39.273-5.8692 13.385-6.8776 82.898-1.3163 90.98 3.1752 4.6204 7.0926 4.6057 43.858-0.17145 18.426-2.3941 47.354-6.0286 64.284-8.0776 43.735-5.2921 41.054-3.423 40.274-28.069-1.1848-37.485-0.99861-41.052 2.7286-52.01 2.2724-6.6808 2.7396-7.6229 7.0994-14.319 19.489-29.932 65.446-34.371 90.743-8.7644 12.633 12.788 31.77 66.736 29.966 78.816-1.8068 12.095-7.4319 10.377 71.626 21.855 36.4 5.2846 80.62 11.737 98.266 14.337 64.168 9.4592 65.324 9.2381 112.62-21.478 15.082-9.7962 27.537-18.071 27.676-18.389 0.13913-0.31814 4.277-3.2061 9.1948-6.417 84.917-55.442 80.223-61.852 76.33-68.377-1.5237-2.5539-29.328-32.171-32.118-34.212-0.26496-0.19409-0.55106-0.35889-0.85427-0.48458z" stroke="#fff" stroke-dasharray="8.00007354, 2.00001839" stroke-width="2"/>
</g>
</g>
</g>
</svg>
