<?xml version="1.0" encoding="UTF-8" standalone="no"?>
<svg id="svg4274" xmlns:rdf="http://www.w3.org/1999/02/22-rdf-syntax-ns#" xmlns="http://www.w3.org/2000/svg" height="648.91" viewBox="0 0 620.00117 648.90944" width="619.99" version="1.1" xmlns:cc="http://creativecommons.org/ns#" xmlns:dc="http://purl.org/dc/elements/1.1/">
<g id="g4137" stroke-linejoin="round" transform="translate(35.46 152.1)">
<path id="path4133" d="m49.299-100.04c-11.216 9.0242-15.989 22.785-11.553 36.421 5.2188 16.042 2.1004 13.259 75.615 67.472 21.637 15.955 21.472 15.657 20.44 37.646-1.2274 26.174 0.65772 37.635 23.18 140.98 27.871 127.89 20.836 114.2 68.438 133.21 40.936 16.352 49.604 28.004 36.418 48.952-7.7048 12.239-8.7482 12.4-80.396 12.361-75.469-0.0411-85.114 0.84778-110.1 10.137-63.492 23.61-90.879 69.36-41.37 69.121 128.9-0.64152 222.68-0.75473 269.33-0.33963 146.76 1.3042 183.27 1.2011 193.67-0.54655 27.509-4.6194 41.002-42.777 22.028-62.293-13.489-13.874-15.783-14.36-69.731-14.764-48.723-0.36471-54.56-2.2875-57.075-18.803-3.9018-25.623 26.296-30.99 100.43-17.851 48.125 8.5298 43.733 15.814 48.798-80.978 2.1275-40.652 4.7247-87.593 5.7695-104.31 3.8356-61.381 3.3459-62.084-58.685-84.635-47.556-17.29-44.552-14.237-88.38-89.764-16.802-28.953-29.423-31.18-64.325-11.349-35.998 20.457-32.245 21.068-77.047-12.561-39.298-29.504-37.333-27.53-36.137-36.257 2.3302-17.175-0.60459-18.555-57.864-27.209-55.733-8.4236-78.348-8.8632-98.197-1.9117-5.0684 1.775-9.5224 4.2564-13.261 7.2644z" stroke="#006400" stroke-width="80.001" fill="#006400"/>
<g fill="none">
<path id="path4136" d="m49.299-100.04c-11.216 9.0242-15.989 22.785-11.553 36.421 5.2188 16.042 2.1004 13.259 75.615 67.472 21.637 15.955 21.472 15.657 20.44 37.646-1.2274 26.174 0.65772 37.635 23.18 140.98 27.871 127.89 20.836 114.2 68.438 133.21 40.936 16.352 49.604 28.004 36.418 48.952-7.7048 12.239-8.7482 12.4-80.396 12.361-75.469-0.0411-85.114 0.84778-110.1 10.137-63.492 23.61-90.879 69.36-41.37 69.121 128.9-0.64152 222.68-0.75473 269.33-0.33963 146.76 1.3042 183.27 1.2011 193.67-0.54655 27.509-4.6194 41.002-42.777 22.028-62.293-13.489-13.874-15.783-14.36-69.731-14.764-48.723-0.36471-54.56-2.2875-57.075-18.803-3.9018-25.623 26.296-30.99 100.43-17.851 48.125 8.5298 43.733 15.814 48.798-80.978 2.1275-40.652 4.7247-87.593 5.7695-104.31 3.8356-61.381 3.3459-62.084-58.685-84.635-47.556-17.29-44.552-14.237-88.38-89.764-16.802-28.953-29.423-31.18-64.325-11.349-35.998 20.457-32.245 21.068-77.047-12.561-39.298-29.504-37.333-27.53-36.137-36.257 2.3302-17.175-0.60459-18.555-57.864-27.209-55.733-8.4236-78.348-8.8632-98.197-1.9117-5.0684 1.775-9.5224 4.2564-13.261 7.2644z" stroke="#f00" stroke-width="26"/>
<path id="path4135" d="m49.299-100.04c-11.216 9.0242-15.989 22.785-11.553 36.421 5.2188 16.042 2.1004 13.259 75.615 67.472 21.637 15.955 21.472 15.657 20.44 37.646-1.2274 26.174 0.65772 37.635 23.18 140.98 27.871 127.89 20.836 114.2 68.438 133.21 40.936 16.352 49.604 28.004 36.418 48.952-7.7048 12.239-8.7482 12.4-80.396 12.361-75.469-0.0411-85.114 0.84778-110.1 10.137-63.492 23.61-90.879 69.36-41.37 69.121 128.9-0.64152 222.68-0.75473 269.33-0.33963 146.76 1.3042 183.27 1.2011 193.67-0.54655 27.509-4.6194 41.002-42.777 22.028-62.293-13.489-13.874-15.783-14.36-69.731-14.764-48.723-0.36471-54.56-2.2875-57.075-18.803-3.9018-25.623 26.296-30.99 100.43-17.851 48.125 8.5298 43.733 15.814 48.798-80.978 2.1275-40.652 4.7247-87.593 5.7695-104.31 3.8356-61.381 3.3459-62.084-58.685-84.635-47.556-17.29-44.552-14.237-88.38-89.764-16.802-28.953-29.423-31.18-64.325-11.349-35.998 20.457-32.245 21.068-77.047-12.561-39.298-29.504-37.333-27.53-36.137-36.257 2.3302-17.175-0.60459-18.555-57.864-27.209-55.733-8.4236-78.348-8.8632-98.197-1.9117-5.0684 1.775-9.5224 4.2564-13.261 7.2644z" stroke="#fff" stroke-dasharray="26.00027889,26.00027889" stroke-width="26"/>
<path id="path4284" d="m49.299-100.04c-11.216 9.0242-15.989 22.785-11.553 36.421 5.2188 16.042 2.1004 13.259 75.615 67.472 21.637 15.955 21.472 15.657 20.44 37.646-1.2274 26.174 0.65772 37.635 23.18 140.98 27.871 127.89 20.836 114.2 68.438 133.21 40.936 16.352 49.604 28.004 36.418 48.952-7.7048 12.239-8.7482 12.4-80.396 12.361-75.469-0.0411-85.114 0.84778-110.1 10.137-63.492 23.61-90.879 69.36-41.37 69.121 128.9-0.64152 222.68-0.75473 269.33-0.33963 146.76 1.3042 183.27 1.2011 193.67-0.54655 27.509-4.6194 41.002-42.777 22.028-62.293-13.489-13.874-15.783-14.36-69.731-14.764-48.723-0.36471-54.56-2.2875-57.075-18.803-3.9018-25.623 26.296-30.99 100.43-17.851 48.125 8.5298 43.733 15.814 48.798-80.978 2.1275-40.652 4.7247-87.593 5.7695-104.31 3.8356-61.381 3.3459-62.084-58.685-84.635-47.556-17.29-44.552-14.237-88.38-89.764-16.802-28.953-29.423-31.18-64.325-11.349-35.998 20.457-32.245 21.068-77.047-12.561-39.298-29.504-37.333-27.53-36.137-36.257 2.3302-17.175-0.60459-18.555-57.864-27.209-55.733-8.4236-78.348-8.8632-98.197-1.9117-5.0684 1.775-9.5224 4.2564-13.261 7.2644z" stroke="#141414" stroke-width="20"/>
<path id="path4138" d="m49.299-100.04c-11.216 9.0242-15.989 22.785-11.553 36.421 5.2188 16.042 2.1004 13.259 75.615 67.472 21.637 15.955 21.472 15.657 20.44 37.646-1.2274 26.174 0.65772 37.635 23.18 140.98 27.871 127.89 20.836 114.2 68.438 133.21 40.936 16.352 49.604 28.004 36.418 48.952-7.7048 12.239-8.7482 12.4-80.396 12.361-75.469-0.0411-85.114 0.84778-110.1 10.137-63.492 23.61-90.879 69.36-41.37 69.121 128.9-0.64152 222.68-0.75473 269.33-0.33963 146.76 1.3042 183.27 1.2011 193.67-0.54655 27.509-4.6194 41.002-42.777 22.028-62.293-13.489-13.874-15.783-14.36-69.731-14.764-48.723-0.36471-54.56-2.2875-57.075-18.803-3.9018-25.623 26.296-30.99 100.43-17.851 48.125 8.5298 43.733 15.814 48.798-80.978 2.1275-40.652 4.7247-87.593 5.7695-104.31 3.8356-61.381 3.3459-62.084-58.685-84.635-47.556-17.29-44.552-14.237-88.38-89.764-16.802-28.953-29.423-31.18-64.325-11.349-35.998 20.457-32.245 21.068-77.047-12.561-39.298-29.504-37.333-27.53-36.137-36.257 2.3302-17.175-0.60459-18.555-57.864-27.209-55.733-8.4236-78.348-8.8632-98.197-1.9117-5.0684 1.775-9.5224 4.2564-13.261 7.2644z" stroke="#fdffff" stroke-dasharray="8.00008581,2.00002145" stroke-width="2"/>
</g>
</g>
</svg>
