<?xml version="1.0" encoding="UTF-8" standalone="no"?>
<svg id="svg4222" xmlns:rdf="http://www.w3.org/1999/02/22-rdf-syntax-ns#" xmlns="http://www.w3.org/2000/svg" height="572.15" viewBox="0 0 670.64588 572.1424" width="670.64" version="1.1" xmlns:cc="http://creativecommons.org/ns#" xmlns:dc="http://purl.org/dc/elements/1.1/">
<g id="g4146" stroke-linejoin="round">
<path id="path4133" d="m48.885 40.049c-16.372-0.201-10.087 10.684 18.64 61.531 36.645 64.86 47.135 89.62 52.825 124.7 1.42 8.7 3.53 21.3 4.71 28 1.17 6.7 4.03 23.8 6.35 38 8.5 52.01 25.83 109.94 56.54 188.96 4.97 12.79 9.79 27.06 10.71 31.71 0.91 4.64 2.6 10.22 3.75 12.4 3.51 6.62 21.48 7.2 183.54 5.93 10.83-0.08 51.72 0.15 90.86 0.52 105.17 0.99 138.89 0.67 149.24-21.86 0.16-0.33 0.3-0.66 0.44-0.99 0.02-0.04 0.04-0.08 0.05-0.12 0.17-0.4 0.33-0.8 0.47-1.2 3.63-9.87 3.58-23.6 3.18-42.65-1.1-52.51-3.81-63.44-18.4-74.13-19.34-8.04-46.87-14.53-68.46-19.93-34.47-8.63-74.32-18.62-88.54-22.22-112.59-28.43-110.29-28.11-140.81-19.79-15.47 4.22-17.7 5.35-32.79 16.65-26.38 19.73-47.89 20.4-63.46 1.97-8.38-9.92-30.27-89.52-29.46-107.11 1.45-31.6 32.89-47.4 64.5-32.42 75.59 35.81 96.71 42.81 123.56 40.95 35.19-2.44 71.61-24.64 77.97-43.84 0.9-1.74 1.17-3.55 0.97-5.34 0.05-2.45-0.48-4.81-1.67-7.03-5.03-9.36-4.87-9.29-56.2-25.55-62.96-19.98-81.75-27.7-153.54-63.04-56-27.572-89.73-42.15-122.39-51.207v0.014c-17.11-4.745-33.924-7.975-53.499-10.766-8.142-1.16-14.502-2.086-19.086-2.142zm180.48 200.59c-0.17 0-0.34 0-0.51 0.03-4.25 2.05-0.59 7.95-0.61 11.47 5.12 22.15 10.05 44.56 18.45 65.74 2.91 5.06 8.11-1.64 11.41-3.06 14.67-11.12 31.25-20.01 49.36-23.78 7.07-2.23 15.04-2.64 21.75-5.67 1.59-4.79-5.98-4.99-8.83-6.62-30.84-10.18-59.41-25.95-89.54-37.86-0.48-0.12-0.98-0.24-1.48-0.25z" transform="translate(0 -.0027161)" stroke="#016400" stroke-width="80" fill="#006400"/>
<g fill="none">
<path id="path4137" d="m121.47 52.954c-17.11-4.745-33.924-7.975-53.499-10.765-37.219-5.305-37.217-5.696-0.446 59.391 36.643 64.859 47.133 89.621 52.828 124.7 1.4128 8.7011 3.5312 21.302 4.7063 28.001 1.1752 6.6996 4.0345 23.799 6.3537 38 8.4935 52.006 25.826 109.94 56.536 188.95 4.9735 12.796 9.7928 27.067 10.708 31.712 0.91535 4.6447 2.6061 10.223 3.7574 12.397 3.5091 6.6249 21.472 7.2056 183.53 5.9368 10.835-0.0848 51.721 0.14732 90.86 0.51531 105.17 0.98886 138.9 0.66973 149.24-21.863 0.15934-0.32343 0.29974-0.6535 0.4389-0.9846 0.0175-0.0416 0.036-0.083 0.0532-0.12474 0.16316-0.39643 0.32465-0.79301 0.46148-1.1993 3.6312-9.8678 3.5891-23.595 3.1888-42.643-1.1041-52.514-3.8176-63.444-18.4-74.139-19.343-8.0344-46.877-14.525-68.463-19.926-34.474-8.6262-74.318-18.624-88.542-22.216-112.59-28.434-110.29-28.11-140.81-19.791-15.47 4.2176-17.703 5.352-32.798 16.646-26.377 19.736-47.886 20.402-63.46 1.9656-8.376-9.9151-30.271-89.511-29.463-107.11 1.4522-31.596 32.891-47.397 64.508-32.42 75.585 35.808 96.708 42.807 123.56 40.949 35.187-2.4354 71.61-24.64 77.966-43.839 0.89726-1.7353 1.1716-3.5547 0.97258-5.3431 0.0524-2.4516-0.47796-4.8118-1.6683-7.027-5.0295-9.3597-4.8684-9.2866-56.199-25.554-62.95-20-81.75-27.71-153.54-63.05-56-27.574-89.73-42.153-122.39-51.21z" stroke="#f00" stroke-width="26"/>
<path id="path4135" d="m121.47 52.954c-17.11-4.745-33.924-7.975-53.499-10.765-37.219-5.305-37.217-5.696-0.446 59.391 36.643 64.859 47.133 89.621 52.828 124.7 1.4128 8.7011 3.5312 21.302 4.7063 28.001 1.1752 6.6996 4.0345 23.799 6.3537 38 8.4935 52.006 25.826 109.94 56.536 188.95 4.9735 12.796 9.7928 27.067 10.708 31.712 0.91535 4.6447 2.6061 10.223 3.7574 12.397 3.5091 6.6249 21.472 7.2056 183.53 5.9368 10.835-0.0848 51.721 0.14732 90.86 0.51531 105.17 0.98886 138.9 0.66973 149.24-21.863 0.15934-0.32343 0.29974-0.6535 0.4389-0.9846 0.0175-0.0416 0.036-0.083 0.0532-0.12474 0.16316-0.39643 0.32465-0.79301 0.46148-1.1993 3.6312-9.8678 3.5891-23.595 3.1888-42.643-1.1041-52.514-3.8176-63.444-18.4-74.139-19.343-8.0344-46.877-14.525-68.463-19.926-34.474-8.6262-74.318-18.624-88.542-22.216-112.59-28.434-110.29-28.11-140.81-19.791-15.47 4.2176-17.703 5.352-32.798 16.646-26.377 19.736-47.886 20.402-63.46 1.9656-8.376-9.9151-30.271-89.511-29.463-107.11 1.4522-31.596 32.891-47.397 64.508-32.42 75.585 35.808 96.708 42.807 123.56 40.949 35.187-2.4354 71.61-24.64 77.966-43.839 0.89726-1.7353 1.1716-3.5547 0.97258-5.3431 0.0524-2.4516-0.47796-4.8118-1.6683-7.027-5.0295-9.3597-4.8684-9.2866-56.199-25.554-62.95-20-81.75-27.71-153.54-63.05-56-27.574-89.73-42.153-122.39-51.21z" stroke="#fff" stroke-dasharray="26.0000766, 26.0000766" stroke-width="26"/>
<path id="path4232" d="m121.47 52.954c-17.11-4.745-33.924-7.975-53.499-10.765-37.219-5.305-37.217-5.696-0.446 59.391 36.643 64.859 47.133 89.621 52.828 124.7 1.4128 8.7011 3.5312 21.302 4.7063 28.001 1.1752 6.6996 4.0345 23.799 6.3537 38 8.4935 52.006 25.826 109.94 56.536 188.95 4.9735 12.796 9.7928 27.067 10.708 31.712 0.91535 4.6447 2.6061 10.223 3.7574 12.397 3.5091 6.6249 21.472 7.2056 183.53 5.9368 10.835-0.0848 51.721 0.14732 90.86 0.51531 105.17 0.98886 138.9 0.66973 149.24-21.863 0.15934-0.32343 0.29974-0.6535 0.4389-0.9846 0.0175-0.0416 0.036-0.083 0.0532-0.12474 0.16316-0.39643 0.32465-0.79301 0.46148-1.1993 3.6312-9.8678 3.5891-23.595 3.1888-42.643-1.1041-52.514-3.8176-63.444-18.4-74.139-19.343-8.0344-46.877-14.525-68.463-19.926-34.474-8.6262-74.318-18.624-88.542-22.216-112.59-28.434-110.29-28.11-140.81-19.791-15.47 4.2176-17.703 5.352-32.798 16.646-26.377 19.736-47.886 20.402-63.46 1.9656-8.376-9.9151-30.271-89.511-29.463-107.11 1.4522-31.596 32.891-47.397 64.508-32.42 75.585 35.808 96.708 42.807 123.56 40.949 35.187-2.4354 71.61-24.64 77.966-43.839 0.89726-1.7353 1.1716-3.5547 0.97258-5.3431 0.0524-2.4516-0.47796-4.8118-1.6683-7.027-5.0295-9.3597-4.8684-9.2866-56.199-25.554-62.95-20-81.75-27.71-153.54-63.05-56-27.574-89.73-42.153-122.39-51.21z" stroke="#141414" stroke-width="20"/>
<path id="path4139" d="m121.47 52.954c-17.11-4.745-33.924-7.975-53.499-10.765-37.219-5.305-37.217-5.696-0.446 59.391 36.643 64.859 47.133 89.621 52.828 124.7 1.4128 8.7011 3.5312 21.302 4.7063 28.001 1.1752 6.6996 4.0345 23.799 6.3537 38 8.4935 52.006 25.826 109.94 56.536 188.95 4.9735 12.796 9.7928 27.067 10.708 31.712 0.91535 4.6447 2.6061 10.223 3.7574 12.397 3.5091 6.6249 21.472 7.2056 183.53 5.9368 10.835-0.0848 51.721 0.14732 90.86 0.51531 105.17 0.98886 138.9 0.66973 149.24-21.863 0.15934-0.32343 0.29974-0.6535 0.4389-0.9846 0.0175-0.0416 0.036-0.083 0.0532-0.12474 0.16316-0.39643 0.32465-0.79301 0.46148-1.1993 3.6312-9.8678 3.5891-23.595 3.1888-42.643-1.1041-52.514-3.8176-63.444-18.4-74.139-19.343-8.0344-46.877-14.525-68.463-19.926-34.474-8.6262-74.318-18.624-88.542-22.216-112.59-28.434-110.29-28.11-140.81-19.791-15.47 4.2176-17.703 5.352-32.798 16.646-26.377 19.736-47.886 20.402-63.46 1.9656-8.376-9.9151-30.271-89.511-29.463-107.11 1.4522-31.596 32.891-47.397 64.508-32.42 75.585 35.808 96.708 42.807 123.56 40.949 35.187-2.4354 71.61-24.64 77.966-43.839 0.89726-1.7353 1.1716-3.5547 0.97258-5.3431 0.0524-2.4516-0.47796-4.8118-1.6683-7.027-5.0295-9.3597-4.8684-9.2866-56.199-25.554-62.95-20-81.75-27.71-153.54-63.05-56-27.574-89.73-42.153-122.39-51.21z" stroke="#fff" stroke-dasharray="8.00002357, 2.00000589" stroke-width="2"/>
</g>
</g>
</svg>
