<?xml version="1.0" encoding="UTF-8" standalone="no"?>
<svg id="svg4747" xmlns:rdf="http://www.w3.org/1999/02/22-rdf-syntax-ns#" xmlns="http://www.w3.org/2000/svg" height="740.86" viewBox="0 0 660.02052 740.85748" width="660.02" version="1.1" xmlns:cc="http://creativecommons.org/ns#" xmlns:dc="http://purl.org/dc/elements/1.1/">
<g id="g4137" stroke-linejoin="round" transform="translate(35.377 205.36)">
<path id="path4133" d="m580.39-162.62c-4.5142-5.427-11.321-3.1526-55.882 13.246-24.997 9.1992-53.294 19.572-62.884 23.05-9.5896 3.478-18.274 6.7342-19.298 7.2371-1.024 0.50283-29.518 11.115-63.32 23.583s-84.302 31.098-112.22 41.4c-27.921 10.303-65.209 24.997-82.864 32.655-17.655 7.6574-56.1 22.777-85.434 33.599-51.783 19.105-61.502 23.575-61.013 28.064 0.11935 1.0955 3.5875 5.894 7.7054 10.665 9.401 10.891 10.767 14.994 6.7955 20.4-1.647 2.2419-6.7431 9.0796-11.325 15.196-25.679 34.24-34.157 54.28-35.497 83.87-1.2666 27.94-0.0299 148.93 1.7015 166.45 2.9216 29.578 4.1044 35.641 18.398 94.339 7.7374 31.775 14.648 57.151 16.067 58.994 2.9284 3.8024 8.8079 5.8227 11.232 3.8589 4.2198-3.4183 18.469-9.1419 21.455-8.6187 1.8159 0.31809 5.2941 2.3965 7.73 4.6198 2.7436 2.5042 6.1142 4.1638 8.8577 4.3633 4.4148 0.32112 4.499 0.2615 26.838-19.102 21.357-18.512 22.422-19.616 22.707-23.525 0.55084-7.5535-1.9869-11.086-19.088-26.567-27.896-25.254-71.449-65.759-73.743-68.583-3.2509-4.0027-5.1897-14.853-7.5213-42.104-1.6234-18.974-1.567-25.545 0.25803-29.941 2.605-6.2758 24.015-33.97 29.942-38.73 2.0924-1.6811 4.7831-3.1717 5.978-3.3118 1.4358-0.16827 7.1073 4.4904 16.724 13.736 17.027 16.369 22.115 20.173 25.996 19.427 3.2416-0.6229 35.981-28.741 38.608-33.158 2.3866-4.0129-0.20031-13.548-6.5818-24.258-5.3686-9.0107-7.3318-11.021-42.834-43.833-38.755-35.819-38.96-36.051-37.809-43.475 0.92944-5.9898 26.36-69.624 29.628-74.138 1.9596-2.7067 5.3278-5.5848 8.7126-7.4439 4.7123-2.5882 6.2057-2.7013 10.224-0.77338 2.8725 1.3783 21.593 17.957 48.065 42.563 103.85 96.527 128.41 119.13 132.01 121.5 5.5339 3.6418 15.65 3.3823 20.473-0.52489 4.2077-3.4085 50.327-62.924 58.124-75.008 7.4308-11.516 7.3328-14.964-1.0544-37.115-4.007-10.583-7.9744-22.361-8.8179-26.172-3.2149-14.526 0.16188-32.08 8.873-46.115 6.9336-11.171 14.719-16.687 37.665-26.694 32.741-14.279 49.215-25.858 72.982-51.294 7.1386-7.6395 14.676-15.649 16.75-17.799 34.487-35.757 33.111-33.599 28.549-44.791-2.0037-4.9156-3.411-10.096-3.129-11.51 0.64735-3.2462 2.5444-4.1281 27.878-12.965 27.304-9.5241 31.122-12.921 25.268-22.497-0.65469-1.0709-1.2536-2.0049-1.8985-2.7802z" stroke="#006400" stroke-width="80" fill="#006400"/>
<g fill="none">
<path id="path4137" d="m580.39-162.62c-4.5142-5.427-11.321-3.1526-55.882 13.246-24.997 9.1992-53.294 19.572-62.884 23.05-9.5896 3.478-18.274 6.7342-19.298 7.2371-1.024 0.50283-29.518 11.115-63.32 23.583s-84.302 31.098-112.22 41.4c-27.921 10.303-65.209 24.997-82.864 32.655-17.655 7.6574-56.1 22.777-85.434 33.599-51.783 19.105-61.502 23.575-61.013 28.064 0.11935 1.0955 3.5875 5.894 7.7054 10.665 9.401 10.891 10.767 14.994 6.7955 20.4-1.647 2.2419-6.7431 9.0796-11.325 15.196-25.679 34.24-34.157 54.28-35.497 83.87-1.2666 27.94-0.0299 148.93 1.7015 166.45 2.9216 29.578 4.1044 35.641 18.398 94.339 7.7374 31.775 14.648 57.151 16.067 58.994 2.9284 3.8024 8.8079 5.8227 11.232 3.8589 4.2198-3.4183 18.469-9.1419 21.455-8.6187 1.8159 0.31809 5.2941 2.3965 7.73 4.6198 2.7436 2.5042 6.1142 4.1638 8.8577 4.3633 4.4148 0.32112 4.499 0.2615 26.838-19.102 21.357-18.512 22.422-19.616 22.707-23.525 0.55084-7.5535-1.9869-11.086-19.088-26.567-27.896-25.254-71.449-65.759-73.743-68.583-3.2509-4.0027-5.1897-14.853-7.5213-42.104-1.6234-18.974-1.567-25.545 0.25803-29.941 2.605-6.2758 24.015-33.97 29.942-38.73 2.0924-1.6811 4.7831-3.1717 5.978-3.3118 1.4358-0.16827 7.1073 4.4904 16.724 13.736 17.027 16.369 22.115 20.173 25.996 19.427 3.2416-0.6229 35.981-28.741 38.608-33.158 2.3866-4.0129-0.20031-13.548-6.5818-24.258-5.3686-9.0107-7.3318-11.021-42.834-43.833-38.755-35.819-38.96-36.051-37.809-43.475 0.92944-5.9898 26.36-69.624 29.628-74.138 1.9596-2.7067 5.3278-5.5848 8.7126-7.4439 4.7123-2.5882 6.2057-2.7013 10.224-0.77338 2.8725 1.3783 21.593 17.957 48.065 42.563 103.85 96.527 128.41 119.13 132.01 121.5 5.5339 3.6418 15.65 3.3823 20.473-0.52489 4.2077-3.4085 50.327-62.924 58.124-75.008 7.4308-11.516 7.3328-14.964-1.0544-37.115-4.007-10.583-7.9744-22.361-8.8179-26.172-3.2149-14.526 0.16188-32.08 8.873-46.115 6.9336-11.171 14.719-16.687 37.665-26.694 32.741-14.279 49.215-25.858 72.982-51.294 7.1386-7.6395 14.676-15.649 16.75-17.799 34.487-35.757 33.111-33.599 28.549-44.791-2.0037-4.9156-3.411-10.096-3.129-11.51 0.64735-3.2462 2.5444-4.1281 27.878-12.965 27.304-9.5241 31.122-12.921 25.268-22.497-0.65469-1.0709-1.2536-2.0049-1.8985-2.7802z" stroke="#f00" stroke-width="26"/>
<path id="path4135" d="m580.39-162.62c-4.5142-5.427-11.321-3.1526-55.882 13.246-24.997 9.1992-53.294 19.572-62.884 23.05-9.5896 3.478-18.274 6.7342-19.298 7.2371-1.024 0.50283-29.518 11.115-63.32 23.583s-84.302 31.098-112.22 41.4c-27.921 10.303-65.209 24.997-82.864 32.655-17.655 7.6574-56.1 22.777-85.434 33.599-51.783 19.105-61.502 23.575-61.013 28.064 0.11935 1.0955 3.5875 5.894 7.7054 10.665 9.401 10.891 10.767 14.994 6.7955 20.4-1.647 2.2419-6.7431 9.0796-11.325 15.196-25.679 34.24-34.157 54.28-35.497 83.87-1.2666 27.94-0.0299 148.93 1.7015 166.45 2.9216 29.578 4.1044 35.641 18.398 94.339 7.7374 31.775 14.648 57.151 16.067 58.994 2.9284 3.8024 8.8079 5.8227 11.232 3.8589 4.2198-3.4183 18.469-9.1419 21.455-8.6187 1.8159 0.31809 5.2941 2.3965 7.73 4.6198 2.7436 2.5042 6.1142 4.1638 8.8577 4.3633 4.4148 0.32112 4.499 0.2615 26.838-19.102 21.357-18.512 22.422-19.616 22.707-23.525 0.55084-7.5535-1.9869-11.086-19.088-26.567-27.896-25.254-71.449-65.759-73.743-68.583-3.2509-4.0027-5.1897-14.853-7.5213-42.104-1.6234-18.974-1.567-25.545 0.25803-29.941 2.605-6.2758 24.015-33.97 29.942-38.73 2.0924-1.6811 4.7831-3.1717 5.978-3.3118 1.4358-0.16827 7.1073 4.4904 16.724 13.736 17.027 16.369 22.115 20.173 25.996 19.427 3.2416-0.6229 35.981-28.741 38.608-33.158 2.3866-4.0129-0.20031-13.548-6.5818-24.258-5.3686-9.0107-7.3318-11.021-42.834-43.833-38.755-35.819-38.96-36.051-37.809-43.475 0.92944-5.9898 26.36-69.624 29.628-74.138 1.9596-2.7067 5.3278-5.5848 8.7126-7.4439 4.7123-2.5882 6.2057-2.7013 10.224-0.77338 2.8725 1.3783 21.593 17.957 48.065 42.563 103.85 96.527 128.41 119.13 132.01 121.5 5.5339 3.6418 15.65 3.3823 20.473-0.52489 4.2077-3.4085 50.327-62.924 58.124-75.008 7.4308-11.516 7.3328-14.964-1.0544-37.115-4.007-10.583-7.9744-22.361-8.8179-26.172-3.2149-14.526 0.16188-32.08 8.873-46.115 6.9336-11.171 14.719-16.687 37.665-26.694 32.741-14.279 49.215-25.858 72.982-51.294 7.1386-7.6395 14.676-15.649 16.75-17.799 34.487-35.757 33.111-33.599 28.549-44.791-2.0037-4.9156-3.411-10.096-3.129-11.51 0.64735-3.2462 2.5444-4.1281 27.878-12.965 27.304-9.5241 31.122-12.921 25.268-22.497-0.65469-1.0709-1.2536-2.0049-1.8985-2.7802z" stroke="#fff" stroke-dasharray="26,26" stroke-width="26"/>
<path id="path4757" d="m580.39-162.62c-4.5142-5.427-11.321-3.1526-55.882 13.246-24.997 9.1992-53.294 19.572-62.884 23.05-9.5896 3.478-18.274 6.7342-19.298 7.2371-1.024 0.50283-29.518 11.115-63.32 23.583s-84.302 31.098-112.22 41.4c-27.921 10.303-65.209 24.997-82.864 32.655-17.655 7.6574-56.1 22.777-85.434 33.599-51.783 19.105-61.502 23.575-61.013 28.064 0.11935 1.0955 3.5875 5.894 7.7054 10.665 9.401 10.891 10.767 14.994 6.7955 20.4-1.647 2.2419-6.7431 9.0796-11.325 15.196-25.679 34.24-34.157 54.28-35.497 83.87-1.2666 27.94-0.0299 148.93 1.7015 166.45 2.9216 29.578 4.1044 35.641 18.398 94.339 7.7374 31.775 14.648 57.151 16.067 58.994 2.9284 3.8024 8.8079 5.8227 11.232 3.8589 4.2198-3.4183 18.469-9.1419 21.455-8.6187 1.8159 0.31809 5.2941 2.3965 7.73 4.6198 2.7436 2.5042 6.1142 4.1638 8.8577 4.3633 4.4148 0.32112 4.499 0.2615 26.838-19.102 21.357-18.512 22.422-19.616 22.707-23.525 0.55084-7.5535-1.9869-11.086-19.088-26.567-27.896-25.254-71.449-65.759-73.743-68.583-3.2509-4.0027-5.1897-14.853-7.5213-42.104-1.6234-18.974-1.567-25.545 0.25803-29.941 2.605-6.2758 24.015-33.97 29.942-38.73 2.0924-1.6811 4.7831-3.1717 5.978-3.3118 1.4358-0.16827 7.1073 4.4904 16.724 13.736 17.027 16.369 22.115 20.173 25.996 19.427 3.2416-0.6229 35.981-28.741 38.608-33.158 2.3866-4.0129-0.20031-13.548-6.5818-24.258-5.3686-9.0107-7.3318-11.021-42.834-43.833-38.755-35.819-38.96-36.051-37.809-43.475 0.92944-5.9898 26.36-69.624 29.628-74.138 1.9596-2.7067 5.3278-5.5848 8.7126-7.4439 4.7123-2.5882 6.2057-2.7013 10.224-0.77338 2.8725 1.3783 21.593 17.957 48.065 42.563 103.85 96.527 128.41 119.13 132.01 121.5 5.5339 3.6418 15.65 3.3823 20.473-0.52489 4.2077-3.4085 50.327-62.924 58.124-75.008 7.4308-11.516 7.3328-14.964-1.0544-37.115-4.007-10.583-7.9744-22.361-8.8179-26.172-3.2149-14.526 0.16188-32.08 8.873-46.115 6.9336-11.171 14.719-16.687 37.665-26.694 32.741-14.279 49.215-25.858 72.982-51.294 7.1386-7.6395 14.676-15.649 16.75-17.799 34.487-35.757 33.111-33.599 28.549-44.791-2.0037-4.9156-3.411-10.096-3.129-11.51 0.64735-3.2462 2.5444-4.1281 27.878-12.965 27.304-9.5241 31.122-12.921 25.268-22.497-0.65469-1.0709-1.2536-2.0049-1.8985-2.7802z" stroke="#000" stroke-width="20"/>
<path id="path4142" d="m580.39-162.62c-4.5142-5.427-11.321-3.1526-55.882 13.246-24.997 9.1992-53.294 19.572-62.884 23.05-9.5896 3.478-18.274 6.7342-19.298 7.2371-1.024 0.50283-29.518 11.115-63.32 23.583s-84.302 31.098-112.22 41.4c-27.921 10.303-65.209 24.997-82.864 32.655-17.655 7.6574-56.1 22.777-85.434 33.599-51.783 19.105-61.502 23.575-61.013 28.064 0.11935 1.0955 3.5875 5.894 7.7054 10.665 9.401 10.891 10.767 14.994 6.7955 20.4-1.647 2.2419-6.7431 9.0796-11.325 15.196-25.679 34.24-34.157 54.28-35.497 83.87-1.2666 27.94-0.0299 148.93 1.7015 166.45 2.9216 29.578 4.1044 35.641 18.398 94.339 7.7374 31.775 14.648 57.151 16.067 58.994 2.9284 3.8024 8.8079 5.8227 11.232 3.8589 4.2198-3.4183 18.469-9.1419 21.455-8.6187 1.8159 0.31809 5.2941 2.3965 7.73 4.6198 2.7436 2.5042 6.1142 4.1638 8.8577 4.3633 4.4148 0.32112 4.499 0.2615 26.838-19.102 21.357-18.512 22.422-19.616 22.707-23.525 0.55084-7.5535-1.9869-11.086-19.088-26.567-27.896-25.254-71.449-65.759-73.743-68.583-3.2509-4.0027-5.1897-14.853-7.5213-42.104-1.6234-18.974-1.567-25.545 0.25803-29.941 2.605-6.2758 24.015-33.97 29.942-38.73 2.0924-1.6811 4.7831-3.1717 5.978-3.3118 1.4358-0.16827 7.1073 4.4904 16.724 13.736 17.027 16.369 22.115 20.173 25.996 19.427 3.2416-0.6229 35.981-28.741 38.608-33.158 2.3866-4.0129-0.20031-13.548-6.5818-24.258-5.3686-9.0107-7.3318-11.021-42.834-43.833-38.755-35.819-38.96-36.051-37.809-43.475 0.92944-5.9898 26.36-69.624 29.628-74.138 1.9596-2.7067 5.3278-5.5848 8.7126-7.4439 4.7123-2.5882 6.2057-2.7013 10.224-0.77338 2.8725 1.3783 21.593 17.957 48.065 42.563 103.85 96.527 128.41 119.13 132.01 121.5 5.5339 3.6418 15.65 3.3823 20.473-0.52489 4.2077-3.4085 50.327-62.924 58.124-75.008 7.4308-11.516 7.3328-14.964-1.0544-37.115-4.007-10.583-7.9744-22.361-8.8179-26.172-3.2149-14.526 0.16188-32.08 8.873-46.115 6.9336-11.171 14.719-16.687 37.665-26.694 32.741-14.279 49.215-25.858 72.982-51.294 7.1386-7.6395 14.676-15.649 16.75-17.799 34.487-35.757 33.111-33.599 28.549-44.791-2.0037-4.9156-3.411-10.096-3.129-11.51 0.64735-3.2462 2.5444-4.1281 27.878-12.965 27.304-9.5241 31.122-12.921 25.268-22.497-0.65469-1.0709-1.2536-2.0049-1.8985-2.7802z" stroke="#141414" stroke-width="20"/>
<path id="path4139" d="m580.39-162.62c-4.5142-5.427-11.321-3.1526-55.882 13.246-24.997 9.1992-53.294 19.572-62.884 23.05-9.5896 3.478-18.274 6.7342-19.298 7.2371-1.024 0.50283-29.518 11.115-63.32 23.583s-84.302 31.098-112.22 41.4c-27.921 10.303-65.209 24.997-82.864 32.655-17.655 7.6574-56.1 22.777-85.434 33.599-51.783 19.105-61.502 23.575-61.013 28.064 0.11935 1.0955 3.5875 5.894 7.7054 10.665 9.401 10.891 10.767 14.994 6.7955 20.4-1.647 2.2419-6.7431 9.0796-11.325 15.196-25.679 34.24-34.157 54.28-35.497 83.87-1.2666 27.94-0.0299 148.93 1.7015 166.45 2.9216 29.578 4.1044 35.641 18.398 94.339 7.7374 31.775 14.648 57.151 16.067 58.994 2.9284 3.8024 8.8079 5.8227 11.232 3.8589 4.2198-3.4183 18.469-9.1419 21.455-8.6187 1.8159 0.31809 5.2941 2.3965 7.73 4.6198 2.7436 2.5042 6.1142 4.1638 8.8577 4.3633 4.4148 0.32112 4.499 0.2615 26.838-19.102 21.357-18.512 22.422-19.616 22.707-23.525 0.55084-7.5535-1.9869-11.086-19.088-26.567-27.896-25.254-71.449-65.759-73.743-68.583-3.2509-4.0027-5.1897-14.853-7.5213-42.104-1.6234-18.974-1.567-25.545 0.25803-29.941 2.605-6.2758 24.015-33.97 29.942-38.73 2.0924-1.6811 4.7831-3.1717 5.978-3.3118 1.4358-0.16827 7.1073 4.4904 16.724 13.736 17.027 16.369 22.115 20.173 25.996 19.427 3.2416-0.6229 35.981-28.741 38.608-33.158 2.3866-4.0129-0.20031-13.548-6.5818-24.258-5.3686-9.0107-7.3318-11.021-42.834-43.833-38.755-35.819-38.96-36.051-37.809-43.475 0.92944-5.9898 26.36-69.624 29.628-74.138 1.9596-2.7067 5.3278-5.5848 8.7126-7.4439 4.7123-2.5882 6.2057-2.7013 10.224-0.77338 2.8725 1.3783 21.593 17.957 48.065 42.563 103.85 96.527 128.41 119.13 132.01 121.5 5.5339 3.6418 15.65 3.3823 20.473-0.52489 4.2077-3.4085 50.327-62.924 58.124-75.008 7.4308-11.516 7.3328-14.964-1.0544-37.115-4.007-10.583-7.9744-22.361-8.8179-26.172-3.2149-14.526 0.16188-32.08 8.873-46.115 6.9336-11.171 14.719-16.687 37.665-26.694 32.741-14.279 49.215-25.858 72.982-51.294 7.1386-7.6395 14.676-15.649 16.75-17.799 34.487-35.757 33.111-33.599 28.549-44.791-2.0037-4.9156-3.411-10.096-3.129-11.51 0.64735-3.2462 2.5444-4.1281 27.878-12.965 27.304-9.5241 31.122-12.921 25.268-22.497-0.65469-1.0709-1.2536-2.0049-1.8985-2.7802z" stroke="#fff" stroke-dasharray="8,2" stroke-width="2"/>
</g>
</g>
</svg>
