<?xml version="1.0" encoding="UTF-8" standalone="no"?>
<svg id="svg4245" xmlns:rdf="http://www.w3.org/1999/02/22-rdf-syntax-ns#" xmlns="http://www.w3.org/2000/svg" height="605.6" viewBox="0 0 767.865 605.60511" width="767.87" version="1.1" xmlns:cc="http://creativecommons.org/ns#" xmlns:dc="http://purl.org/dc/elements/1.1/">
<g id="g4137" stroke-linejoin="round" transform="translate(33.89 244.63)">
<path id="path4133" d="m41.437-161.08c-0.51726 1.6598-1.0186 3.3231-1.5113 4.9892-12.882 48.72-23.146 98.172-31.817 147.8-4.1686 24.185-2.443 51.043 13.547 70.879 16.511 21.019 35.88 39.968 56.858 56.491 8.5373 7.4086 21.091 6.6524 29.606-0.36714 10.553-5.374 16.626-19.43 9.3352-29.813-9.58-17.012-31.638-19.158-43.81-33.168-9.217-10.688 0.313-25.587 10.785-31.094 74.725-44.676 149.84-88.928 225.86-131.29 8.4678-4.917 17.999-4.5507 26.473-0.10755 16.608 7.7334 33.914 17.833 43.949 33.71 0.13287 6.3506-9.9464 4.869-14.163 5.767-13.566 1.6078-28.796-3.529-41.443 3.1368-8.2055 8.0909-1.1604 20.9 0.99539 30.099 7.9279 26.363 22.485 51.129 24.653 78.919-0.39911 27.765-21.214 49.746-27.039 76.188-1.3862 21.393 14.453 38.788 24.751 56.001 24.192 36.39 51.949 70.429 74.987 107.54 9.5665 16.597 23.437 36.282 44.768 36.158 18.861 0.98359 42.144-1.5896 53.309-18.861 6.0393-9.4878-0.21507-19.923-2.9634-29.158 4.5397-8.1078 16.621-8.5587 24.187-13.135 33.986-14.158 66.649-32.519 103.73-37.086 15.615-2.4909 33.667-6.3085 41.738-21.655 6.9691-13.364 8.491-30.964-1.7486-43.198-35.58-53.7-84.88-96.115-128.24-143.19-28.879-31.1-60.272-59.949-87.348-92.612-15.13-19.47-10.128-49.876-30.179-66.325-11.772-8.0629-26.927-7.684-39.682-2.2448-15.552 7.7904-33.37 2.4825-46.4-7.6737-14.396-9.9189-28.719-26.853-48.324-22.538-14.533 2.286-29.41 6.0828-43.678 0.9893-58.228-14.916-117.65-31.669-178.33-28.242-17.218 0.0916-32.12 12.412-37.604 28.369-2.0366 4.8023-3.7319 9.7395-5.2836 14.719z" stroke="#006400" stroke-width="80" fill="#006400"/>
<g fill="none">
<path id="path4136" d="m41.437-161.08c-0.51726 1.6598-1.0186 3.3231-1.5113 4.9892-12.882 48.72-23.146 98.172-31.817 147.8-4.1686 24.185-2.443 51.043 13.547 70.879 16.511 21.019 35.88 39.968 56.858 56.491 8.5373 7.4086 21.091 6.6524 29.606-0.36714 10.553-5.374 16.626-19.43 9.3352-29.813-9.58-17.012-31.638-19.158-43.81-33.168-9.217-10.688 0.313-25.587 10.785-31.094 74.725-44.676 149.84-88.928 225.86-131.29 8.4678-4.917 17.999-4.5507 26.473-0.10755 16.608 7.7334 33.914 17.833 43.949 33.71 0.13287 6.3506-9.9464 4.869-14.163 5.767-13.566 1.6078-28.796-3.529-41.443 3.1368-8.2055 8.0909-1.1604 20.9 0.99539 30.099 7.9279 26.363 22.485 51.129 24.653 78.919-0.39911 27.765-21.214 49.746-27.039 76.188-1.3862 21.393 14.453 38.788 24.751 56.001 24.192 36.39 51.949 70.429 74.987 107.54 9.5665 16.597 23.437 36.282 44.768 36.158 18.861 0.98359 42.144-1.5896 53.309-18.861 6.0393-9.4878-0.21507-19.923-2.9634-29.158 4.5397-8.1078 16.621-8.5587 24.187-13.135 33.986-14.158 66.649-32.519 103.73-37.086 15.615-2.4909 33.667-6.3085 41.738-21.655 6.9691-13.364 8.491-30.964-1.7486-43.198-35.58-53.7-84.88-96.115-128.24-143.19-28.879-31.1-60.272-59.949-87.348-92.612-15.13-19.47-10.128-49.876-30.179-66.325-11.772-8.0629-26.927-7.684-39.682-2.2448-15.552 7.7904-33.37 2.4825-46.4-7.6737-14.396-9.9189-28.719-26.853-48.324-22.538-14.533 2.286-29.41 6.0828-43.678 0.9893-58.228-14.916-117.65-31.669-178.33-28.242-17.218 0.0916-32.12 12.412-37.604 28.369-2.0366 4.8023-3.7319 9.7395-5.2836 14.719z" stroke="#f00" stroke-width="26"/>
<path id="path4135" d="m41.437-161.08c-0.51726 1.6598-1.0186 3.3231-1.5113 4.9892-12.882 48.72-23.146 98.172-31.817 147.8-4.1686 24.185-2.443 51.043 13.547 70.879 16.511 21.019 35.88 39.968 56.858 56.491 8.5373 7.4086 21.091 6.6524 29.606-0.36714 10.553-5.374 16.626-19.43 9.3352-29.813-9.58-17.012-31.638-19.158-43.81-33.168-9.217-10.688 0.313-25.587 10.785-31.094 74.725-44.676 149.84-88.928 225.86-131.29 8.4678-4.917 17.999-4.5507 26.473-0.10755 16.608 7.7334 33.914 17.833 43.949 33.71 0.13287 6.3506-9.9464 4.869-14.163 5.767-13.566 1.6078-28.796-3.529-41.443 3.1368-8.2055 8.0909-1.1604 20.9 0.99539 30.099 7.9279 26.363 22.485 51.129 24.653 78.919-0.39911 27.765-21.214 49.746-27.039 76.188-1.3862 21.393 14.453 38.788 24.751 56.001 24.192 36.39 51.949 70.429 74.987 107.54 9.5665 16.597 23.437 36.282 44.768 36.158 18.861 0.98359 42.144-1.5896 53.309-18.861 6.0393-9.4878-0.21507-19.923-2.9634-29.158 4.5397-8.1078 16.621-8.5587 24.187-13.135 33.986-14.158 66.649-32.519 103.73-37.086 15.615-2.4909 33.667-6.3085 41.738-21.655 6.9691-13.364 8.491-30.964-1.7486-43.198-35.58-53.7-84.88-96.115-128.24-143.19-28.879-31.1-60.272-59.949-87.348-92.612-15.13-19.47-10.128-49.876-30.179-66.325-11.772-8.0629-26.927-7.684-39.682-2.2448-15.552 7.7904-33.37 2.4825-46.4-7.6737-14.396-9.9189-28.719-26.853-48.324-22.538-14.533 2.286-29.41 6.0828-43.678 0.9893-58.228-14.916-117.65-31.669-178.33-28.242-17.218 0.0916-32.12 12.412-37.604 28.369-2.0366 4.8023-3.7319 9.7395-5.2836 14.719z" stroke="#fff" stroke-dasharray="26.00010979,26.00010979" stroke-width="26"/>
<path id="path4259" d="m41.437-161.08c-0.51726 1.6598-1.0186 3.3231-1.5113 4.9892-12.882 48.72-23.146 98.172-31.817 147.8-4.1686 24.185-2.443 51.043 13.547 70.879 16.511 21.019 35.88 39.968 56.858 56.491 8.5373 7.4086 21.091 6.6524 29.606-0.36714 10.553-5.374 16.626-19.43 9.3352-29.813-9.58-17.012-31.638-19.158-43.81-33.168-9.217-10.688 0.313-25.587 10.785-31.094 74.725-44.676 149.84-88.928 225.86-131.29 8.4678-4.917 17.999-4.5507 26.473-0.10755 16.608 7.7334 33.914 17.833 43.949 33.71 0.13287 6.3506-9.9464 4.869-14.163 5.767-13.566 1.6078-28.796-3.529-41.443 3.1368-8.2055 8.0909-1.1604 20.9 0.99539 30.099 7.9279 26.363 22.485 51.129 24.653 78.919-0.39911 27.765-21.214 49.746-27.039 76.188-1.3862 21.393 14.453 38.788 24.751 56.001 24.192 36.39 51.949 70.429 74.987 107.54 9.5665 16.597 23.437 36.282 44.768 36.158 18.861 0.98359 42.144-1.5896 53.309-18.861 6.0393-9.4878-0.21507-19.923-2.9634-29.158 4.5397-8.1078 16.621-8.5587 24.187-13.135 33.986-14.158 66.649-32.519 103.73-37.086 15.615-2.4909 33.667-6.3085 41.738-21.655 6.9691-13.364 8.491-30.964-1.7486-43.198-35.58-53.7-84.88-96.115-128.24-143.19-28.879-31.1-60.272-59.949-87.348-92.612-15.13-19.47-10.128-49.876-30.179-66.325-11.772-8.0629-26.927-7.684-39.682-2.2448-15.552 7.7904-33.37 2.4825-46.4-7.6737-14.396-9.9189-28.719-26.853-48.324-22.538-14.533 2.286-29.41 6.0828-43.678 0.9893-58.228-14.916-117.65-31.669-178.33-28.242-17.218 0.0916-32.12 12.412-37.604 28.369-2.0366 4.8023-3.7319 9.7395-5.2836 14.719z" stroke="#141414" stroke-width="20"/>
<path id="path4138" d="m41.437-161.08c-0.51726 1.6598-1.0186 3.3231-1.5113 4.9892-12.882 48.72-23.146 98.172-31.817 147.8-4.1686 24.185-2.443 51.043 13.547 70.879 16.511 21.019 35.88 39.968 56.858 56.491 8.5373 7.4086 21.091 6.6524 29.606-0.36714 10.553-5.374 16.626-19.43 9.3352-29.813-9.58-17.012-31.638-19.158-43.81-33.168-9.217-10.688 0.313-25.587 10.785-31.094 74.725-44.676 149.84-88.928 225.86-131.29 8.4678-4.917 17.999-4.5507 26.473-0.10755 16.608 7.7334 33.914 17.833 43.949 33.71 0.13287 6.3506-9.9464 4.869-14.163 5.767-13.566 1.6078-28.796-3.529-41.443 3.1368-8.2055 8.0909-1.1604 20.9 0.99539 30.099 7.9279 26.363 22.485 51.129 24.653 78.919-0.39911 27.765-21.214 49.746-27.039 76.188-1.3862 21.393 14.453 38.788 24.751 56.001 24.192 36.39 51.949 70.429 74.987 107.54 9.5665 16.597 23.437 36.282 44.768 36.158 18.861 0.98359 42.144-1.5896 53.309-18.861 6.0393-9.4878-0.21507-19.923-2.9634-29.158 4.5397-8.1078 16.621-8.5587 24.187-13.135 33.986-14.158 66.649-32.519 103.73-37.086 15.615-2.4909 33.667-6.3085 41.738-21.655 6.9691-13.364 8.491-30.964-1.7486-43.198-35.58-53.7-84.88-96.115-128.24-143.19-28.879-31.1-60.272-59.949-87.348-92.612-15.13-19.47-10.128-49.876-30.179-66.325-11.772-8.0629-26.927-7.684-39.682-2.2448-15.552 7.7904-33.37 2.4825-46.4-7.6737-14.396-9.9189-28.719-26.853-48.324-22.538-14.533 2.286-29.41 6.0828-43.678 0.9893-58.228-14.916-117.65-31.669-178.33-28.242-17.218 0.0916-32.12 12.412-37.604 28.369-2.0366 4.8023-3.7319 9.7395-5.2836 14.719z" stroke="#fff" stroke-dasharray="8.00003378,2.00000845" stroke-width="2"/>
</g>
</g>
</svg>
