<?xml version="1.0" encoding="UTF-8" standalone="no"?>
<svg id="svg4136" xmlns:rdf="http://www.w3.org/1999/02/22-rdf-syntax-ns#" xmlns="http://www.w3.org/2000/svg" height="375.36" viewBox="0 0 659.75017 375.35598" width="659.75" version="1.1" xmlns:cc="http://creativecommons.org/ns#" xmlns:dc="http://purl.org/dc/elements/1.1/">
<g id="g4141" stroke-linejoin="round" transform="translate(36.956 134.33)">
<path id="path4135" d="m19.664-17.716c-10.7 24.144-10.416 23.143-14.561 51.356-3.8281 26.053-5.1999 22.833 20.902 49.14 13.107 13.209 21.82 22.819 21.592 23.812-0.2097 0.91646-4.2686 7.5002-9.0217 14.629-14.533 21.797-13.862 23.734 10.792 31.192 36.874 11.154 72.059 15.992 113.46 15.603 41.218-0.38823 50.73 3.1564 56.518 21.054 4.1422 12.806-3.1759 12.132 127.17 11.693 94.011-0.31662 120.16-0.97055 123.18-3.0827 7.8137-5.4678 10.119-12.659 9.2138-28.757-1.1532-20.52-2.853-20.236 42.444-7.1254 15.315 4.4329 20.616 5.2685 24.633 3.8839 9.5529-3.2932 31.651-44.763 36.94-69.318 1.4318-6.6479-5.9744-12.352-41.56-32.009-57.422-31.72-56.232-31.461-117.47-25.567-23.24 2.237-28.731 4.6076-41.762 18.03-16.235 16.723-67.59 22.452-97.425 10.868-40.728-15.831-84.67-71.893-76.268-97.325 4.1421-12.53-19.325-34.526-61.955-58.082-22.966-12.69-48.054-9.4916-71.691 9.1379-12.28 9.6781-16.417 11.261-34.879 13.356-8.0333 0.64243-16.272 38.442-20.256 47.511z" stroke="#006500" stroke-width="80" fill="#006400"/>
<g fill="none">
<path id="path4139" d="m19.664-17.716c-10.7 24.144-10.416 23.143-14.561 51.356-3.8281 26.053-5.1999 22.833 20.902 49.14 13.107 13.209 21.82 22.819 21.592 23.812-0.2097 0.91646-4.2686 7.5002-9.0217 14.629-14.533 21.797-13.862 23.734 10.792 31.192 36.874 11.154 72.059 15.992 113.46 15.603 41.218-0.38823 50.73 3.1564 56.518 21.054 4.1422 12.806-3.1759 12.132 127.17 11.693 94.011-0.31662 120.16-0.97055 123.18-3.0827 7.8137-5.4678 10.119-12.659 9.2138-28.757-1.1532-20.52-2.853-20.236 42.444-7.1254 15.315 4.4329 20.616 5.2685 24.633 3.8839 9.5529-3.2932 31.651-44.763 36.94-69.318 1.4318-6.6479-5.9744-12.352-41.56-32.009-57.422-31.72-56.232-31.461-117.47-25.567-23.24 2.237-28.731 4.6076-41.762 18.03-16.235 16.723-67.59 22.452-97.425 10.868-40.728-15.831-84.67-71.893-76.268-97.325 4.1421-12.53-19.325-34.526-61.955-58.082-22.966-12.69-48.054-9.4916-71.691 9.1379-12.28 9.6781-16.417 11.261-34.879 13.356-8.0333 0.64243-16.272 38.442-20.256 47.511z" stroke="#f00" stroke-width="26"/>
<path id="path4137" d="m19.664-17.716c-10.7 24.144-10.416 23.143-14.561 51.356-3.8281 26.053-5.1999 22.833 20.902 49.14 13.107 13.209 21.82 22.819 21.592 23.812-0.2097 0.91646-4.2686 7.5002-9.0217 14.629-14.533 21.797-13.862 23.734 10.792 31.192 36.874 11.154 72.059 15.992 113.46 15.603 41.218-0.38823 50.73 3.1564 56.518 21.054 4.1422 12.806-3.1759 12.132 127.17 11.693 94.011-0.31662 120.16-0.97055 123.18-3.0827 7.8137-5.4678 10.119-12.659 9.2138-28.757-1.1532-20.52-2.853-20.236 42.444-7.1254 15.315 4.4329 20.616 5.2685 24.633 3.8839 9.5529-3.2932 31.651-44.763 36.94-69.318 1.4318-6.6479-5.9744-12.352-41.56-32.009-57.422-31.72-56.232-31.461-117.47-25.567-23.24 2.237-28.731 4.6076-41.762 18.03-16.235 16.723-67.59 22.452-97.425 10.868-40.728-15.831-84.67-71.893-76.268-97.325 4.1421-12.53-19.325-34.526-61.955-58.082-22.966-12.69-48.054-9.4916-71.691 9.1379-12.28 9.6781-16.417 11.261-34.879 13.356-8.0333 0.64243-16.272 38.442-20.256 47.511z" stroke="#fff" stroke-dasharray="26.00008353, 26.00008353" stroke-width="26"/>
<path id="path4146" d="m19.664-17.716c-10.7 24.144-10.416 23.143-14.561 51.356-3.8281 26.053-5.1999 22.833 20.902 49.14 13.107 13.209 21.82 22.819 21.592 23.812-0.2097 0.91646-4.2686 7.5002-9.0217 14.629-14.533 21.797-13.862 23.734 10.792 31.192 36.874 11.154 72.059 15.992 113.46 15.603 41.218-0.38823 50.73 3.1564 56.518 21.054 4.1422 12.806-3.1759 12.132 127.17 11.693 94.011-0.31662 120.16-0.97055 123.18-3.0827 7.8137-5.4678 10.119-12.659 9.2138-28.757-1.1532-20.52-2.853-20.236 42.444-7.1254 15.315 4.4329 20.616 5.2685 24.633 3.8839 9.5529-3.2932 31.651-44.763 36.94-69.318 1.4318-6.6479-5.9744-12.352-41.56-32.009-57.422-31.72-56.232-31.461-117.47-25.567-23.24 2.237-28.731 4.6076-41.762 18.03-16.235 16.723-67.59 22.452-97.425 10.868-40.728-15.831-84.67-71.893-76.268-97.325 4.1421-12.53-19.325-34.526-61.955-58.082-22.966-12.69-48.054-9.4916-71.691 9.1379-12.28 9.6781-16.417 11.261-34.879 13.356-8.0333 0.64243-16.272 38.442-20.256 47.511z" stroke="#141414" stroke-width="20"/>
<path id="path4133" d="m19.664-17.716c-10.7 24.144-10.416 23.143-14.561 51.356-3.8281 26.053-5.1999 22.833 20.902 49.14 13.107 13.209 21.82 22.819 21.592 23.812-0.2097 0.91646-4.2686 7.5002-9.0217 14.629-14.533 21.797-13.862 23.734 10.792 31.192 36.874 11.154 72.059 15.992 113.46 15.603 41.218-0.38823 50.73 3.1564 56.518 21.054 4.1422 12.806-3.1759 12.132 127.17 11.693 94.011-0.31662 120.16-0.97055 123.18-3.0827 7.8137-5.4678 10.119-12.659 9.2138-28.757-1.1532-20.52-2.853-20.236 42.444-7.1254 15.315 4.4329 20.616 5.2685 24.633 3.8839 9.5529-3.2932 31.651-44.763 36.94-69.318 1.4318-6.6479-5.9744-12.352-41.56-32.009-57.422-31.72-56.232-31.461-117.47-25.567-23.24 2.237-28.731 4.6076-41.762 18.03-16.235 16.723-67.59 22.452-97.425 10.868-40.728-15.831-84.67-71.893-76.268-97.325 4.1421-12.53-19.325-34.526-61.955-58.082-22.966-12.69-48.054-9.4916-71.691 9.1379-12.28 9.6781-16.417 11.261-34.879 13.356-8.0333 0.64243-16.272 38.442-20.256 47.511z" stroke="#fff" stroke-dasharray="8.0000257, 2.00000643" stroke-width="2"/>
</g>
</g>
</svg>
