<?xml version="1.0" encoding="UTF-8" standalone="no"?>
<svg id="svg4182" xmlns:rdf="http://www.w3.org/1999/02/22-rdf-syntax-ns#" xmlns="http://www.w3.org/2000/svg" height="673.23" viewBox="0 0 457.84509 673.23272" width="457.85" version="1.1" xmlns:cc="http://creativecommons.org/ns#" xmlns:dc="http://purl.org/dc/elements/1.1/">
<g id="g4189">
<path id="path4142" stroke-linejoin="round" d="m224.25 40.002c-35.45 0.238-100.79 24.822-123.85 48.17-23.603 23.908-60.4 156.02-60.4 216.87 0 16.37 22.001 114.54 35.953 160.44 1.776 5.84 11.106 40.39 20.733 76.78 20.204 76.38 24.764 86.88 39.254 90.33 10.96 2.61 14.41 1 27.18-12.59 16.59-17.66 21.1-18.65 38.2-8.38 46.98 28.22 112.81 3.74 127.25-47.3 63.95-226.12 93.74-345.37 88.73-355.16-8.87-17.31-69.23-29.04-101.87-19.8-18.44 5.22-24.57 12.51-114.14 135.99-35.96 49.56-35.95 49.56-64.04 48.33-34.16-1.49-45.011-13.35-52.016-56.86-8.278-51.43-3.331-62.54 20.616-46.35 21.98 14.87 35.52 15.66 47.52 2.78 15.07-16.18 11.77-25.92-19.82-58.54-25.61-26.43-40.903-66.04-30.1-77.93 6.44-7.09 13.88-2.77 32.77 19.02 36.69 42.32 61.77 50.21 93.54 29.44 18.27-11.95 75.84-102.75 71.35-112.56-4.8-10.501-39.49-27.062-66.9-31.942-2.94-0.525-6.29-0.761-9.96-0.736zm-6.28 181.46c-0.31-0.01-0.62-0.01-0.93 0.01-10.13 1.52-24.2 0.45-29.8 11.09-1.95 10.02 1.96 20.08 4.07 29.64 5.55 8.37 20.1 7.12 23.78-2.35 6.91-8.64 16.98-18.92 13.81-31.05-2.02-4.12-6.31-7.18-10.93-7.34zm-61.21 84.37c-0.27-0.01-0.55 0-0.82 0.02-12.15 5.15-27.66-0.05-38.49 8.97-8.99 13.88 4.59 34.35 20.82 32.14 14.12 0.13 25.51-11.89 29.84-24.46 2.25-7.93-2.89-16.6-11.35-16.67z" stroke="#006400" stroke-width="80" fill="#006400"/>
<g fill="none">
<path id="path4137" d="m224.25 40.001c-35.456 0.23772-100.8 24.822-123.85 48.171-23.607 23.911-60.403 156.02-60.403 216.87 0 16.368 22 114.55 35.953 160.44 1.7754 5.8403 11.105 40.392 20.731 76.782 20.204 76.374 24.769 86.88 39.259 90.327 10.953 2.6055 14.409 1.0036 27.173-12.587 16.588-17.664 21.101-18.653 38.202-8.3821 46.981 28.217 112.81 3.7451 127.25-47.303 63.952-226.12 93.743-345.36 88.729-355.15-8.8668-17.313-69.23-29.05-101.87-19.808-18.442 5.2215-24.563 12.509-114.14 135.99-35.954 49.562-35.948 49.56-64.036 48.333-34.164-1.4919-45.012-13.35-52.017-56.862-8.278-51.422-3.3308-62.542 20.616-46.342 21.977 14.867 35.522 15.659 47.523 2.776 15.069-16.177 11.772-25.917-19.825-58.537-25.608-26.438-40.902-66.045-30.098-77.937 6.4383-7.0865 13.875-2.7684 32.766 19.02 36.698 42.327 61.772 50.219 93.541 29.444 18.274-11.95 75.839-102.75 71.355-112.56-4.8051-10.505-39.487-27.067-66.896-31.946-2.9484-0.52485-6.2941-0.76165-9.962-0.73706z" stroke="#f00" stroke-width="26"/>
<path id="path4135" d="m224.25 40.001c-35.456 0.23772-100.8 24.822-123.85 48.171-23.607 23.911-60.403 156.02-60.403 216.87 0 16.368 22 114.55 35.953 160.44 1.7754 5.8403 11.105 40.392 20.731 76.782 20.204 76.374 24.769 86.88 39.259 90.327 10.953 2.6055 14.409 1.0036 27.173-12.587 16.588-17.664 21.101-18.653 38.202-8.3821 46.981 28.217 112.81 3.7451 127.25-47.303 63.952-226.12 93.743-345.36 88.729-355.15-8.8668-17.313-69.23-29.05-101.87-19.808-18.442 5.2215-24.563 12.509-114.14 135.99-35.954 49.562-35.948 49.56-64.036 48.333-34.164-1.4919-45.012-13.35-52.017-56.862-8.278-51.422-3.3308-62.542 20.616-46.342 21.977 14.867 35.522 15.659 47.523 2.776 15.069-16.177 11.772-25.917-19.825-58.537-25.608-26.438-40.902-66.045-30.098-77.937 6.4383-7.0865 13.875-2.7684 32.766 19.02 36.698 42.327 61.772 50.219 93.541 29.444 18.274-11.95 75.839-102.75 71.355-112.56-4.8051-10.505-39.487-27.067-66.896-31.946-2.9484-0.52485-6.2941-0.76165-9.962-0.73706z" stroke="#fff" stroke-dasharray="26, 26" stroke-width="26"/>
<path id="path4192" d="m224.25 40.001c-35.456 0.23772-100.8 24.822-123.85 48.171-23.607 23.911-60.403 156.02-60.403 216.87 0 16.368 22 114.55 35.953 160.44 1.7754 5.8403 11.105 40.392 20.731 76.782 20.204 76.374 24.769 86.88 39.259 90.327 10.953 2.6055 14.409 1.0036 27.173-12.587 16.588-17.664 21.101-18.653 38.202-8.3821 46.981 28.217 112.81 3.7451 127.25-47.303 63.952-226.12 93.743-345.36 88.729-355.15-8.8668-17.313-69.23-29.05-101.87-19.808-18.442 5.2215-24.563 12.509-114.14 135.99-35.954 49.562-35.948 49.56-64.036 48.333-34.164-1.4919-45.012-13.35-52.017-56.862-8.278-51.422-3.3308-62.542 20.616-46.342 21.977 14.867 35.522 15.659 47.523 2.776 15.069-16.177 11.772-25.917-19.825-58.537-25.608-26.438-40.902-66.045-30.098-77.937 6.4383-7.0865 13.875-2.7684 32.766 19.02 36.698 42.327 61.772 50.219 93.541 29.444 18.274-11.95 75.839-102.75 71.355-112.56-4.8051-10.505-39.487-27.067-66.896-31.946-2.9484-0.52485-6.2941-0.76165-9.962-0.73706z" stroke="#141414" stroke-width="20"/>
<path id="path4139" d="m224.25 40.001c-35.456 0.23772-100.8 24.822-123.85 48.171-23.607 23.911-60.403 156.02-60.403 216.87 0 16.368 22 114.55 35.953 160.44 1.7754 5.8403 11.105 40.392 20.731 76.782 20.204 76.374 24.769 86.88 39.259 90.327 10.953 2.6055 14.409 1.0036 27.173-12.587 16.588-17.664 21.101-18.653 38.202-8.3821 46.981 28.217 112.81 3.7451 127.25-47.303 63.952-226.12 93.743-345.36 88.729-355.15-8.8668-17.313-69.23-29.05-101.87-19.808-18.442 5.2215-24.563 12.509-114.14 135.99-35.954 49.562-35.948 49.56-64.036 48.333-34.164-1.4919-45.012-13.35-52.017-56.862-8.278-51.422-3.3308-62.542 20.616-46.342 21.977 14.867 35.522 15.659 47.523 2.776 15.069-16.177 11.772-25.917-19.825-58.537-25.608-26.438-40.902-66.045-30.098-77.937 6.4383-7.0865 13.875-2.7684 32.766 19.02 36.698 42.327 61.772 50.219 93.541 29.444 18.274-11.95 75.839-102.75 71.355-112.56-4.8051-10.505-39.487-27.067-66.896-31.946-2.9484-0.52485-6.2941-0.76165-9.962-0.73706z" stroke="#fff" stroke-dasharray="8, 2" stroke-width="2"/>
</g>
</g>
</svg>
