<?xml version="1.0" encoding="UTF-8" standalone="no"?>
<svg id="svg4182" xmlns:rdf="http://www.w3.org/1999/02/22-rdf-syntax-ns#" xmlns="http://www.w3.org/2000/svg" height="464.28" viewBox="0 0 672.10377 464.27103" width="672.1" version="1.1" xmlns:cc="http://creativecommons.org/ns#" xmlns:dc="http://purl.org/dc/elements/1.1/">
<g id="g4141" stroke-linejoin="round" transform="translate(36.082 145.99)">
<path id="path4133" d="m4.0204 269.32c0.9029 11.621 49.577 9.8648 245.22 6.2387 17.291-0.32047 33.333-0.3791 35.652-0.13058 18.611 1.996 140.46 3.1222 202.83 1.8748l72.649-1.453 15.07-7.2756c8.2881-4.0019 16.415-8.9046 18.061-10.894 5.5192-6.6746 4.4791-8.9254-30.624-66.204-18.29-29.85-43.43-70.87-55.85-91.15-109.62-179.07-107.19-175.59-122.56-174.92-14.069 0.6071-26.001 15.48-43.112 53.746-8.4725 17.458-13.075 24.366-13.196 42.73-0.23457 35.059 14.761 51.56 61.307 67.459 38.565 13.173 62.628 47.941 52.737 76.2-4.1623 11.89-7.98 12.504-78.385 12.604-162.43 0.23125-223.22-1.3368-266.93-6.8931-0.02464-0.003-0.04429-0.007-0.06875-0.0112-1.859-0.93599-3.3947-2.1443-4.0553-3.7472 0.73931-2.4918 3.7826-6.5991 9.512-13.502 18.079-21.783 17.894-21.775 133.73-7.4247 80.883 10.02 85.416 1.2913 22.968-44.236-56.7-41.364-56.61-41.224-51.62-69.735 4.75-27.198-1.02-36.606-28.57-46.533-20.87-7.526-42.34-26.159-71.12-61.722-32.571-40.24-49.793-40.44-56.018-0.632-23.291 148.94-32.407 214.61-32.503 249.65-0.14602 2.362-0.09834 4.6916 0.11975 6.9928 0.43532 11.639 2.0838 19.511 4.6938 26.335 10.351 27.065 10.641 24.63-4.9899 42.137-8.3331 9.3337-15.296 15.93-14.942 20.477z" stroke="#006400" stroke-width="80" fill="#006400"/>
<g fill="none">
<path id="path4137" d="m4.0204 269.32c0.9029 11.621 49.577 9.8648 245.22 6.2387 17.291-0.32047 33.333-0.3791 35.652-0.13058 18.611 1.996 140.46 3.1222 202.83 1.8748l72.649-1.453 15.07-7.2756c8.2881-4.0019 16.415-8.9046 18.061-10.894 5.5192-6.6746 4.4791-8.9254-30.624-66.204-18.29-29.85-43.43-70.87-55.85-91.15-109.62-179.07-107.19-175.59-122.56-174.92-14.069 0.6071-26.001 15.48-43.112 53.746-8.4725 17.458-13.075 24.366-13.196 42.73-0.23457 35.059 14.761 51.56 61.307 67.459 38.565 13.173 62.628 47.941 52.737 76.2-4.1623 11.89-7.98 12.504-78.385 12.604-162.43 0.23125-223.22-1.3368-266.93-6.8931-0.02464-0.003-0.04429-0.007-0.06875-0.0112-1.859-0.93599-3.3947-2.1443-4.0553-3.7472 0.73931-2.4918 3.7826-6.5991 9.512-13.502 18.079-21.783 17.894-21.775 133.73-7.4247 80.883 10.02 85.416 1.2913 22.968-44.236-56.7-41.364-56.61-41.224-51.62-69.735 4.75-27.198-1.02-36.606-28.57-46.533-20.87-7.526-42.34-26.159-71.12-61.722-32.571-40.24-49.793-40.44-56.018-0.632-23.291 148.94-32.407 214.61-32.503 249.65-0.14602 2.362-0.09834 4.6916 0.11975 6.9928 0.43532 11.639 2.0838 19.511 4.6938 26.335 10.351 27.065 10.641 24.63-4.9899 42.137-8.3331 9.3337-15.296 15.93-14.942 20.477z" stroke="#f00" stroke-width="26"/>
<path id="path4135" d="m4.0204 269.32c0.9029 11.621 49.577 9.8648 245.22 6.2387 17.291-0.32047 33.333-0.3791 35.652-0.13058 18.611 1.996 140.46 3.1222 202.83 1.8748l72.649-1.453 15.07-7.2756c8.2881-4.0019 16.415-8.9046 18.061-10.894 5.5192-6.6746 4.4791-8.9254-30.624-66.204-18.29-29.85-43.43-70.87-55.85-91.15-109.62-179.07-107.19-175.59-122.56-174.92-14.069 0.6071-26.001 15.48-43.112 53.746-8.4725 17.458-13.075 24.366-13.196 42.73-0.23457 35.059 14.761 51.56 61.307 67.459 38.565 13.173 62.628 47.941 52.737 76.2-4.1623 11.89-7.98 12.504-78.385 12.604-162.43 0.23125-223.22-1.3368-266.93-6.8931-0.02464-0.003-0.04429-0.007-0.06875-0.0112-1.859-0.93599-3.3947-2.1443-4.0553-3.7472 0.73931-2.4918 3.7826-6.5991 9.512-13.502 18.079-21.783 17.894-21.775 133.73-7.4247 80.883 10.02 85.416 1.2913 22.968-44.236-56.7-41.364-56.61-41.224-51.62-69.735 4.75-27.198-1.02-36.606-28.57-46.533-20.87-7.526-42.34-26.159-71.12-61.722-32.571-40.24-49.793-40.44-56.018-0.632-23.291 148.94-32.407 214.61-32.503 249.65-0.14602 2.362-0.09834 4.6916 0.11975 6.9928 0.43532 11.639 2.0838 19.511 4.6938 26.335 10.351 27.065 10.641 24.63-4.9899 42.137-8.3331 9.3337-15.296 15.93-14.942 20.477z" stroke="#fff" stroke-dasharray="25.99995687, 25.99995687" stroke-width="26"/>
<path id="path4192" d="m4.0204 269.32c0.9029 11.621 49.577 9.8648 245.22 6.2387 17.291-0.32047 33.333-0.3791 35.652-0.13058 18.611 1.996 140.46 3.1222 202.83 1.8748l72.649-1.453 15.07-7.2756c8.2881-4.0019 16.415-8.9046 18.061-10.894 5.5192-6.6746 4.4791-8.9254-30.624-66.204-18.29-29.85-43.43-70.87-55.85-91.15-109.62-179.07-107.19-175.59-122.56-174.92-14.069 0.6071-26.001 15.48-43.112 53.746-8.4725 17.458-13.075 24.366-13.196 42.73-0.23457 35.059 14.761 51.56 61.307 67.459 38.565 13.173 62.628 47.941 52.737 76.2-4.1623 11.89-7.98 12.504-78.385 12.604-162.43 0.23125-223.22-1.3368-266.93-6.8931-0.02464-0.003-0.04429-0.007-0.06875-0.0112-1.859-0.93599-3.3947-2.1443-4.0553-3.7472 0.73931-2.4918 3.7826-6.5991 9.512-13.502 18.079-21.783 17.894-21.775 133.73-7.4247 80.883 10.02 85.416 1.2913 22.968-44.236-56.7-41.364-56.61-41.224-51.62-69.735 4.75-27.198-1.02-36.606-28.57-46.533-20.87-7.526-42.34-26.159-71.12-61.722-32.571-40.24-49.793-40.44-56.018-0.632-23.291 148.94-32.407 214.61-32.503 249.65-0.14602 2.362-0.09834 4.6916 0.11975 6.9928 0.43532 11.639 2.0838 19.511 4.6938 26.335 10.351 27.065 10.641 24.63-4.9899 42.137-8.3331 9.3337-15.296 15.93-14.942 20.477z" stroke="#141414" stroke-width="20"/>
<path id="path4139" d="m4.0204 269.32c0.9029 11.621 49.577 9.8648 245.22 6.2387 17.291-0.32047 33.333-0.3791 35.652-0.13058 18.611 1.996 140.46 3.1222 202.83 1.8748l72.649-1.453 15.07-7.2756c8.2881-4.0019 16.415-8.9046 18.061-10.894 5.5192-6.6746 4.4791-8.9254-30.624-66.204-18.29-29.85-43.43-70.87-55.85-91.15-109.62-179.07-107.19-175.59-122.56-174.92-14.069 0.6071-26.001 15.48-43.112 53.746-8.4725 17.458-13.075 24.366-13.196 42.73-0.23457 35.059 14.761 51.56 61.307 67.459 38.565 13.173 62.628 47.941 52.737 76.2-4.1623 11.89-7.98 12.504-78.385 12.604-162.43 0.23125-223.22-1.3368-266.93-6.8931-0.02464-0.003-0.04429-0.007-0.06875-0.0112-1.859-0.93599-3.3947-2.1443-4.0553-3.7472 0.73931-2.4918 3.7826-6.5991 9.512-13.502 18.079-21.783 17.894-21.775 133.73-7.4247 80.883 10.02 85.416 1.2913 22.968-44.236-56.7-41.364-56.61-41.224-51.62-69.735 4.75-27.198-1.02-36.606-28.57-46.533-20.87-7.526-42.34-26.159-71.12-61.722-32.571-40.24-49.793-40.44-56.018-0.632-23.291 148.94-32.407 214.61-32.503 249.65-0.14602 2.362-0.09834 4.6916 0.11975 6.9928 0.43532 11.639 2.0838 19.511 4.6938 26.335 10.351 27.065 10.641 24.63-4.9899 42.137-8.3331 9.3337-15.296 15.93-14.942 20.477z" stroke="#fff" stroke-dasharray="7.99998673, 1.99999668" stroke-width="2"/>
</g>
</g>
</svg>
