<?xml version="1.0" encoding="UTF-8" standalone="no"?>
<svg id="svg4343" xmlns:rdf="http://www.w3.org/1999/02/22-rdf-syntax-ns#" xmlns="http://www.w3.org/2000/svg" height="477.28" viewBox="0 0 859.99433 477.27844" width="859.99" version="1.1" xmlns:cc="http://creativecommons.org/ns#" xmlns:dc="http://purl.org/dc/elements/1.1/">
<g id="g4137" transform="translate(35.884 177.54)">
<path id="path4133" stroke-linejoin="round" d="m4.127-98.317c0.48368 10.965 6.9078 26.489 16.953 49.793 8.5392 19.811 17.223 41.836 19.3 48.944l3.7764 12.924 7.5343 2.8684c5.635 2.1456 7.6124 3.7378 7.8494 6.32 2.2561 24.591 22.407 140.81 26.487 152.75 20.209 59.162 58.2 83.729 127.95 82.74 13.112-0.18585 24.203-0.1562 24.646 0.0651 1.3773 0.68839 25.778-5.7356 39.803-10.477 15.743-5.3222 17.361-5.1248 17.996 2.1819 0.7457 8.5776-16.646 7.7376 164.7 7.942 27.954 0.0315 81.701 0.49691 119.44 1.0322l68.614 0.97178 41.133-5.1445c63.751-7.9766 83.588-18.925 91.843-50.685 3.8882-14.959 2.3343-21.304-7.9469-32.421-7.3521-7.9498-12.156-8.952-45.422-9.4915-16.295-0.26429-86.405-1.3616-155.8-2.4379-159.69-2.4767-152.34-1.9614-159.73-11.225-8.2508-10.345-22.913-14.657-39.803-11.705-13.249 2.3154-7.7784 6.2088-54.288-38.616-135.29-130.38-122.33-115.61-182.56-207.95-20.972-32.152-16.499-30.195-54.144-23.708-58.529 10.087-79.258 14.402-78.334 35.335z" stroke="#006400" stroke-width="80" fill="#006400"/>
</g>
<g stroke-linejoin="round" fill="none">
<path id="path4138" d="m40.011 79.223c0.48368 10.965 6.9078 26.489 16.953 49.793 8.5392 19.811 17.223 41.836 19.3 48.944l3.7764 12.924 7.5343 2.8684c5.635 2.1456 7.6124 3.7378 7.8494 6.32 2.2561 24.591 22.407 140.81 26.487 152.75 20.209 59.162 58.2 83.729 127.95 82.74 13.112-0.18585 24.203-0.1562 24.646 0.0651 1.3773 0.68839 25.778-5.7356 39.803-10.477 15.743-5.3222 17.361-5.1248 17.996 2.1819 0.7457 8.5776-16.646 7.7376 164.7 7.942 27.954 0.0315 81.701 0.49691 119.44 1.0322l68.614 0.97178 41.133-5.1445c63.751-7.9766 83.588-18.925 91.843-50.685 3.8882-14.959 2.3343-21.304-7.9469-32.421-7.3521-7.9498-12.156-8.952-45.422-9.4915-16.295-0.26429-86.405-1.3616-155.8-2.4379-159.69-2.4767-152.34-1.9614-159.73-11.225-8.2508-10.345-22.913-14.657-39.803-11.705-13.249 2.3154-7.7784 6.2088-54.288-38.616-135.3-130.38-122.33-115.61-182.57-207.96-20.97-32.147-16.5-30.19-54.14-23.703-58.533 10.087-79.262 14.402-78.339 35.336z" stroke="#f00" stroke-width="26"/>
<path id="path4135" d="m40.011 79.223c0.48368 10.965 6.9078 26.489 16.953 49.793 8.5392 19.811 17.223 41.836 19.3 48.944l3.7764 12.924 7.5343 2.8684c5.635 2.1456 7.6124 3.7378 7.8494 6.32 2.2561 24.591 22.407 140.81 26.487 152.75 20.209 59.162 58.2 83.729 127.95 82.74 13.112-0.18585 24.203-0.1562 24.646 0.0651 1.3773 0.68839 25.778-5.7356 39.803-10.477 15.743-5.3222 17.361-5.1248 17.996 2.1819 0.7457 8.5776-16.646 7.7376 164.7 7.942 27.954 0.0315 81.701 0.49691 119.44 1.0322l68.614 0.97178 41.133-5.1445c63.751-7.9766 83.588-18.925 91.843-50.685 3.8882-14.959 2.3343-21.304-7.9469-32.421-7.3521-7.9498-12.156-8.952-45.422-9.4915-16.295-0.26429-86.405-1.3616-155.8-2.4379-159.69-2.4767-152.34-1.9614-159.73-11.225-8.2508-10.345-22.913-14.657-39.803-11.705-13.249 2.3154-7.7784 6.2088-54.288-38.616-135.3-130.38-122.33-115.61-182.57-207.96-20.97-32.147-16.5-30.19-54.14-23.703-58.533 10.087-79.262 14.402-78.339 35.336z" stroke="#fff" stroke-dasharray="26,26" stroke-width="26"/>
<path id="path4353" d="m40.011 79.223c0.48368 10.965 6.9078 26.489 16.953 49.793 8.5392 19.811 17.223 41.836 19.3 48.944l3.7764 12.924 7.5343 2.8684c5.635 2.1456 7.6124 3.7378 7.8494 6.32 2.2561 24.591 22.407 140.81 26.487 152.75 20.209 59.162 58.2 83.729 127.95 82.74 13.112-0.18585 24.203-0.1562 24.646 0.0651 1.3773 0.68839 25.778-5.7356 39.803-10.477 15.743-5.3222 17.361-5.1248 17.996 2.1819 0.7457 8.5776-16.646 7.7376 164.7 7.942 27.954 0.0315 81.701 0.49691 119.44 1.0322l68.614 0.97178 41.133-5.1445c63.751-7.9766 83.588-18.925 91.843-50.685 3.8882-14.959 2.3343-21.304-7.9469-32.421-7.3521-7.9498-12.156-8.952-45.422-9.4915-16.295-0.26429-86.405-1.3616-155.8-2.4379-159.69-2.4767-152.34-1.9614-159.73-11.225-8.2508-10.345-22.913-14.657-39.803-11.705-13.249 2.3154-7.7784 6.2088-54.288-38.616-135.3-130.38-122.33-115.61-182.57-207.96-20.97-32.147-16.5-30.19-54.14-23.703-58.533 10.087-79.262 14.402-78.339 35.336z" stroke="#141414" stroke-width="20"/>
<path id="path4140" d="m40.011 79.223c0.48368 10.965 6.9078 26.489 16.953 49.793 8.5392 19.811 17.223 41.836 19.3 48.944l3.7764 12.924 7.5343 2.8684c5.635 2.1456 7.6124 3.7378 7.8494 6.32 2.2561 24.591 22.407 140.81 26.487 152.75 20.209 59.162 58.2 83.729 127.95 82.74 13.112-0.18585 24.203-0.1562 24.646 0.0651 1.3773 0.68839 25.778-5.7356 39.803-10.477 15.743-5.3222 17.361-5.1248 17.996 2.1819 0.7457 8.5776-16.646 7.7376 164.7 7.942 27.954 0.0315 81.701 0.49691 119.44 1.0322l68.614 0.97178 41.133-5.1445c63.751-7.9766 83.588-18.925 91.843-50.685 3.8882-14.959 2.3343-21.304-7.9469-32.421-7.3521-7.9498-12.156-8.952-45.422-9.4915-16.295-0.26429-86.405-1.3616-155.8-2.4379-159.69-2.4767-152.34-1.9614-159.73-11.225-8.2508-10.345-22.913-14.657-39.803-11.705-13.249 2.3154-7.7784 6.2088-54.288-38.616-135.3-130.38-122.33-115.61-182.57-207.96-20.97-32.147-16.5-30.19-54.14-23.703-58.533 10.087-79.262 14.402-78.339 35.336z" stroke="#fff" stroke-dasharray="8,2" stroke-width="2"/>
</g>
</svg>
