<?xml version="1.0" encoding="UTF-8" standalone="no"?>
<svg id="svg4149" xmlns:rdf="http://www.w3.org/1999/02/22-rdf-syntax-ns#" xmlns="http://www.w3.org/2000/svg" height="653.35" viewBox="0 0 777.26006 653.35128" width="777.27" version="1.1" xmlns:cc="http://creativecommons.org/ns#" xmlns:dc="http://purl.org/dc/elements/1.1/">
<g id="g4143" stroke-linejoin="round" transform="translate(33.606 275.66)">
<path id="path4139" d="m599.82-233.59c-23.468 1.4014-39.914 20.703-59.097 31.878-25.728 18.433-55.998 32.586-75.521 58.207-6.4743 20.262 12.265 37.122 13.09 56.902 4.0462 21.892-6.7543 47.079-28.969 54.06-36.738 13.517-74.84-5.6369-112.49-0.99286-25.926 2.136-51.984 7.5161-77.714 1.831-23.584-4.7305-47.619-5.2189-71.51-5.2428-34.48-1.12-68.69-7.598-102.2-14.542-16.718 5.918-15.594 27.289-26.012 39.182-15.751 25.261-28.764 52.587-33.576 82.182-17.651 72.428-27.773 149.47-10.19 222.88 5.0741 11.814-3.388 28.601 9.3941 36.58 14.482 9.5484 33.172 7.5907 49.56 7.7736 10.818-5.4762 5.9716-20.66-1.5186-26.99-11.639-12.187-19.993-27.136-24.047-43.517-7.1097-23.691-10.363-50.629-0.09298-73.794 8.2073-9.0006 17.529-18.333 17.721-31.414 4.3182-19.68 9.5175-41.673-0.19422-60.455-11.42-31.414 2.317-65.223 20.425-91.035 9.0876-10.58 17.748-24.256 31.566-28.179 20.743-2.6973 40.823 5.914 61.242 8.3082 34.218 6.8686 69.681 9.1988 102.9 19.915 9.3491 5.5073 22.714 10.047 31.414 0.87915 18.421-8.508 38.226 2.5659 57.381 1.4611 77.146 6.2023 165.45-4.7306 224.64-57.523 40.129-35.915 80.557-83.396 103.86-132.17 5.5658-10.862 6.1285-29.123-8.1567-33.144-14.953-4.7792-31.728-2.9411-46.393 1.7666-11.507 6.0363-9.7251 21.31-3.0218 30.324 3.7821 6.9564 11.475 17.474 4.712 24.752-8.9494 3.2251-31.749-3.1746-30.202-13.832-2.0602-16.42-10.087-34.198-1.6915-49.877 2.8138-6.5584-0.90961-14.709-8.3016-15.703 4.4015 2.6685-5.1338-1.9933-7.0032-0.46821z" stroke="#006400" stroke-width="80.001" fill="#006400"/>
<g fill="none">
<path id="path4138" d="m599.82-233.59c-23.468 1.4014-39.914 20.703-59.097 31.878-25.728 18.433-55.998 32.586-75.521 58.207-6.4743 20.262 12.265 37.122 13.09 56.902 4.0462 21.892-6.7543 47.079-28.969 54.06-36.738 13.517-74.84-5.6369-112.49-0.99286-25.926 2.136-51.984 7.5161-77.714 1.831-23.584-4.7305-47.619-5.2189-71.51-5.2428-34.48-1.12-68.69-7.598-102.2-14.542-16.718 5.918-15.594 27.289-26.012 39.182-15.751 25.261-28.764 52.587-33.576 82.182-17.651 72.428-27.773 149.47-10.19 222.88 5.0741 11.814-3.388 28.601 9.3941 36.58 14.482 9.5484 33.172 7.5907 49.56 7.7736 10.818-5.4762 5.9716-20.66-1.5186-26.99-11.639-12.187-19.993-27.136-24.047-43.517-7.1097-23.691-10.363-50.629-0.09298-73.794 8.2073-9.0006 17.529-18.333 17.721-31.414 4.3182-19.68 9.5175-41.673-0.19422-60.455-11.42-31.414 2.317-65.223 20.425-91.035 9.0876-10.58 17.748-24.256 31.566-28.179 20.743-2.6973 40.823 5.914 61.242 8.3082 34.218 6.8686 69.681 9.1988 102.9 19.915 9.3491 5.5073 22.714 10.047 31.414 0.87915 18.421-8.508 38.226 2.5659 57.381 1.4611 77.146 6.2023 165.45-4.7306 224.64-57.523 40.129-35.915 80.557-83.396 103.86-132.17 5.5658-10.862 6.1285-29.123-8.1567-33.144-14.953-4.7792-31.728-2.9411-46.393 1.7666-11.507 6.0363-9.7251 21.31-3.0218 30.324 3.7821 6.9564 11.475 17.474 4.712 24.752-8.9494 3.2251-31.749-3.1746-30.202-13.832-2.0602-16.42-10.087-34.198-1.6915-49.877 2.8138-6.5584-0.90961-14.709-8.3016-15.703 4.4015 2.6685-5.1338-1.9933-7.0032-0.46821z" stroke="#f00" stroke-width="26"/>
<path id="path4141" d="m599.82-233.59c-23.468 1.4014-39.914 20.703-59.097 31.878-25.728 18.433-55.998 32.586-75.521 58.207-6.4743 20.262 12.265 37.122 13.09 56.902 4.0462 21.892-6.7543 47.079-28.969 54.06-36.738 13.517-74.84-5.6369-112.49-0.99286-25.926 2.136-51.984 7.5161-77.714 1.831-23.584-4.7305-47.619-5.2189-71.51-5.2428-34.48-1.12-68.69-7.598-102.2-14.542-16.718 5.918-15.594 27.289-26.012 39.182-15.751 25.261-28.764 52.587-33.576 82.182-17.651 72.428-27.773 149.47-10.19 222.88 5.0741 11.814-3.388 28.601 9.3941 36.58 14.482 9.5484 33.172 7.5907 49.56 7.7736 10.818-5.4762 5.9716-20.66-1.5186-26.99-11.639-12.187-19.993-27.136-24.047-43.517-7.1097-23.691-10.363-50.629-0.09298-73.794 8.2073-9.0006 17.529-18.333 17.721-31.414 4.3182-19.68 9.5175-41.673-0.19422-60.455-11.42-31.414 2.317-65.223 20.425-91.035 9.0876-10.58 17.748-24.256 31.566-28.179 20.743-2.6973 40.823 5.914 61.242 8.3082 34.218 6.8686 69.681 9.1988 102.9 19.915 9.3491 5.5073 22.714 10.047 31.414 0.87915 18.421-8.508 38.226 2.5659 57.381 1.4611 77.146 6.2023 165.45-4.7306 224.64-57.523 40.129-35.915 80.557-83.396 103.86-132.17 5.5658-10.862 6.1285-29.123-8.1567-33.144-14.953-4.7792-31.728-2.9411-46.393 1.7666-11.507 6.0363-9.7251 21.31-3.0218 30.324 3.7821 6.9564 11.475 17.474 4.712 24.752-8.9494 3.2251-31.749-3.1746-30.202-13.832-2.0602-16.42-10.087-34.198-1.6915-49.877 2.8138-6.5584-0.90961-14.709-8.3016-15.703 4.4015 2.6685-5.1338-1.9933-7.0032-0.46821z" stroke="#fff" stroke-dasharray="26.00024842,26.00024842" stroke-width="26"/>
<path id="path4159" d="m599.82-233.59c-23.468 1.4014-39.914 20.703-59.097 31.878-25.728 18.433-55.998 32.586-75.521 58.207-6.4743 20.262 12.265 37.122 13.09 56.902 4.0462 21.892-6.7543 47.079-28.969 54.06-36.738 13.517-74.84-5.6369-112.49-0.99286-25.926 2.136-51.984 7.5161-77.714 1.831-23.584-4.7305-47.619-5.2189-71.51-5.2428-34.48-1.12-68.69-7.598-102.2-14.542-16.718 5.918-15.594 27.289-26.012 39.182-15.751 25.261-28.764 52.587-33.576 82.182-17.651 72.428-27.773 149.47-10.19 222.88 5.0741 11.814-3.388 28.601 9.3941 36.58 14.482 9.5484 33.172 7.5907 49.56 7.7736 10.818-5.4762 5.9716-20.66-1.5186-26.99-11.639-12.187-19.993-27.136-24.047-43.517-7.1097-23.691-10.363-50.629-0.09298-73.794 8.2073-9.0006 17.529-18.333 17.721-31.414 4.3182-19.68 9.5175-41.673-0.19422-60.455-11.42-31.414 2.317-65.223 20.425-91.035 9.0876-10.58 17.748-24.256 31.566-28.179 20.743-2.6973 40.823 5.914 61.242 8.3082 34.218 6.8686 69.681 9.1988 102.9 19.915 9.3491 5.5073 22.714 10.047 31.414 0.87915 18.421-8.508 38.226 2.5659 57.381 1.4611 77.146 6.2023 165.45-4.7306 224.64-57.523 40.129-35.915 80.557-83.396 103.86-132.17 5.5658-10.862 6.1285-29.123-8.1567-33.144-14.953-4.7792-31.728-2.9411-46.393 1.7666-11.507 6.0363-9.7251 21.31-3.0218 30.324 3.7821 6.9564 11.475 17.474 4.712 24.752-8.9494 3.2251-31.749-3.1746-30.202-13.832-2.0602-16.42-10.087-34.198-1.6915-49.877 2.8138-6.5584-0.90961-14.709-8.3016-15.703 4.4015 2.6685-5.1338-1.9933-7.0032-0.46821z" stroke="#141414" stroke-width="20"/>
<path id="path4140" d="m599.82-233.59c-23.468 1.4014-39.914 20.703-59.097 31.878-25.728 18.433-55.998 32.586-75.521 58.207-6.4743 20.262 12.265 37.122 13.09 56.902 4.0462 21.892-6.7543 47.079-28.969 54.06-36.738 13.517-74.84-5.6369-112.49-0.99286-25.926 2.136-51.984 7.5161-77.714 1.831-23.584-4.7305-47.619-5.2189-71.51-5.2428-34.48-1.12-68.69-7.598-102.2-14.542-16.718 5.918-15.594 27.289-26.012 39.182-15.751 25.261-28.764 52.587-33.576 82.182-17.651 72.428-27.773 149.47-10.19 222.88 5.0741 11.814-3.388 28.601 9.3941 36.58 14.482 9.5484 33.172 7.5907 49.56 7.7736 10.818-5.4762 5.9716-20.66-1.5186-26.99-11.639-12.187-19.993-27.136-24.047-43.517-7.1097-23.691-10.363-50.629-0.09298-73.794 8.2073-9.0006 17.529-18.333 17.721-31.414 4.3182-19.68 9.5175-41.673-0.19422-60.455-11.42-31.414 2.317-65.223 20.425-91.035 9.0876-10.58 17.748-24.256 31.566-28.179 20.743-2.6973 40.823 5.914 61.242 8.3082 34.218 6.8686 69.681 9.1988 102.9 19.915 9.3491 5.5073 22.714 10.047 31.414 0.87915 18.421-8.508 38.226 2.5659 57.381 1.4611 77.146 6.2023 165.45-4.7306 224.64-57.523 40.129-35.915 80.557-83.396 103.86-132.17 5.5658-10.862 6.1285-29.123-8.1567-33.144-14.953-4.7792-31.728-2.9411-46.393 1.7666-11.507 6.0363-9.7251 21.31-3.0218 30.324 3.7821 6.9564 11.475 17.474 4.712 24.752-8.9494 3.2251-31.749-3.1746-30.202-13.832-2.0602-16.42-10.087-34.198-1.6915-49.877 2.8138-6.5584-0.90961-14.709-8.3016-15.703 4.4015 2.6685-5.1338-1.9933-7.0032-0.46821z" stroke="#fff" stroke-dasharray="8.00007644,2.00001911" stroke-width="2"/>
</g>
</g>
</svg>
