<?xml version="1.0" encoding="UTF-8" standalone="no"?>
<svg id="svg2" xmlns:rdf="http://www.w3.org/1999/02/22-rdf-syntax-ns#" xmlns="http://www.w3.org/2000/svg" height="238.48pt" viewBox="0 0 637.85665 238.476" width="637.85pt" version="1.1" xmlns:cc="http://creativecommons.org/ns#" xmlns:dc="http://purl.org/dc/elements/1.1/">
<g id="g4146" stroke-linejoin="round">
<path id="path4133" d="m166.85 41.098c-32.01 0.136-63.44 3.585-92.129 19.982l-1.971 1.236c-25.461 18.468-42.279 54.014-27.168 84.074l6.678 10.66c18.081 23.24 50.5 23.74 72.85 40.74 10.8 10.05 7.81 25.44 8.91 38.5 3.32 10.51 12.71 21.08 24.63 20.66 180.95-1.11 361.9-0.19 542.85 1.09 7.73 0.32 15.4-0.74 22.94-2.28l16.56-10.38c20.18-20.23 16.01-50.05 15.62-76.05-1.5-12.31-21.56-4.5-22.63-16.61-0.25-21.1 6.4-42.05 3.24-63.189l-2.33-3.717h-0.01c-25.02-10.738-51.75-17.378-77.51-26.361-22.65-9.86-50.91 15.095-41.91 38.707 2.94 20.55 26.25 22.98 41.33 30.92 7.69 17.09 13.67 35.2 20.24 52.83 2.99 6.17-3.8 15.57-10.44 11.13-74.42-43.93-148.06-89.2-222.5-133.1-21.05-11.266-49.52-8.169-64.12 12.132-20.31 28.618-40.71 57.308-59.21 87.118-10.09 14.78 3.88 41.52-15.99 50.3-36.89 0.58-77.29 5.32-109.98-15.72-21.26-14.32-42.83-28.25-63.66-43.17-11.18-7.54-2.83-28.46 10.67-26.95 32.71-1.05 65.48 0.04 98.2-0.47 22.94-2.4 47.51-16.72 50.91-41.483 6.85-23.148-16.69-44.638-39.5-39.842-27.65 1.581-56.33-0.878-84.57-0.757zm111.65 111.23c-13.76 4.76-27.88 9.08-42.59 9.35-3.49 0.78-8.55-0.66-10.87 2.6 0.54 4.54 7.13 3.55 10.42 4.93 13.69 2.63 27.91 3.31 41.71 2.71 2.61-3.86 1.65-9.86 3.32-14.41 0.52-2.02 1.25-5.2-1.99-5.18z" transform="matrix(.80001 0 0 .80001 0 -.0029419)" stroke="#006400" stroke-linecap="round" stroke-width="80" fill="#006400"/>
<g fill="none">
<path id="path4137" d="m587.92 68.649c-20.018-8.5906-41.406-13.904-62.007-21.09-18.126-7.8881-40.735 12.076-33.534 30.966 2.3505 16.442 20.999 18.385 33.065 24.738 6.1492 13.672 10.935 28.162 16.195 42.261 2.3859 4.9366-3.0391 12.455-8.3552 8.9062-59.54-35.146-118.45-71.357-178-106.48-16.838-9.0143-39.62-6.536-51.298 9.7052-16.243 22.891-32.566 45.843-47.369 69.696-8.074 11.823 3.1024 33.213-12.794 40.237-29.51 0.46204-61.831 4.254-87.982-12.578-17.01-11.455-34.26-22.594-50.927-34.537-8.9476-6.0287-2.2628-22.763 8.5379-21.555 26.166-0.84475 52.38 0.0272 78.561-0.3787 18.353-1.9193 38.009-13.378 40.726-33.185 5.4824-18.519-13.353-35.71-31.601-31.873-47.18 2.6975-98.162-9.3126-141.36 15.38l-1.5768 0.98827c-20.369 14.774-33.822 43.209-21.733 67.261l5.3421 8.5236c14.465 18.598 40.396 18.998 58.279 32.597 8.6385 8.0399 6.2489 20.348 7.1311 30.794 2.6542 8.4152 10.169 16.865 19.706 16.528 144.76-0.88209 289.52-0.14686 434.28 0.87694 6.1801 0.25726 12.315-0.59035 18.352-1.8243l13.245-8.3012c16.149-16.187 12.808-40.046 12.495-60.845-1.1932-9.8501-17.247-3.6011-18.1-13.286-0.20453-16.878 5.1156-33.642 2.5896-50.552l-1.8637-2.9736z" stroke="#f00" stroke-width="20.8"/>
<path id="path4135" d="m587.92 68.649c-20.018-8.5906-41.406-13.904-62.007-21.09-18.126-7.8881-40.735 12.076-33.534 30.966 2.3505 16.442 20.999 18.385 33.065 24.738 6.1492 13.672 10.935 28.162 16.195 42.261 2.3859 4.9366-3.0391 12.455-8.3552 8.9062-59.54-35.146-118.45-71.357-178-106.48-16.838-9.0143-39.62-6.536-51.298 9.7052-16.243 22.891-32.566 45.843-47.369 69.696-8.074 11.823 3.1024 33.213-12.794 40.237-29.51 0.46204-61.831 4.254-87.982-12.578-17.01-11.455-34.26-22.594-50.927-34.537-8.9476-6.0287-2.2628-22.763 8.5379-21.555 26.166-0.84475 52.38 0.0272 78.561-0.3787 18.353-1.9193 38.009-13.378 40.726-33.185 5.4824-18.519-13.353-35.71-31.601-31.873-47.18 2.6975-98.162-9.3126-141.36 15.38l-1.5768 0.98827c-20.369 14.774-33.822 43.209-21.733 67.261l5.3421 8.5236c14.465 18.598 40.396 18.998 58.279 32.597 8.6385 8.0399 6.2489 20.348 7.1311 30.794 2.6542 8.4152 10.169 16.865 19.706 16.528 144.76-0.88209 289.52-0.14686 434.28 0.87694 6.1801 0.25726 12.315-0.59035 18.352-1.8243l13.245-8.3012c16.149-16.187 12.808-40.046 12.495-60.845-1.1932-9.8501-17.247-3.6011-18.1-13.286-0.20453-16.878 5.1156-33.642 2.5896-50.552l-1.8637-2.9736z" stroke="#fff" stroke-dasharray="20.80013431, 20.80013431" stroke-width="20.8"/>
<path id="path4" d="m587.92 68.649c-20.018-8.5906-41.406-13.904-62.007-21.09-18.126-7.8881-40.735 12.076-33.534 30.966 2.3505 16.442 20.999 18.385 33.065 24.738 6.1492 13.672 10.935 28.162 16.195 42.261 2.3859 4.9366-3.0391 12.455-8.3552 8.9062-59.54-35.146-118.45-71.357-178-106.48-16.838-9.0143-39.62-6.536-51.298 9.7052-16.243 22.891-32.566 45.843-47.369 69.696-8.074 11.823 3.1024 33.213-12.794 40.237-29.51 0.46204-61.831 4.254-87.982-12.578-17.01-11.455-34.26-22.594-50.927-34.537-8.9476-6.0287-2.2628-22.763 8.5379-21.555 26.166-0.84475 52.38 0.0272 78.561-0.3787 18.353-1.9193 38.009-13.378 40.726-33.185 5.4824-18.519-13.353-35.71-31.601-31.873-47.18 2.6975-98.162-9.3126-141.36 15.38l-1.5768 0.98827c-20.369 14.774-33.822 43.209-21.733 67.261l5.3421 8.5236c14.465 18.598 40.396 18.998 58.279 32.597 8.6385 8.0399 6.2489 20.348 7.1311 30.794 2.6542 8.4152 10.169 16.865 19.706 16.528 144.76-0.88209 289.52-0.14686 434.28 0.87694 6.1801 0.25726 12.315-0.59035 18.352-1.8243l13.245-8.3012c16.149-16.187 12.808-40.046 12.495-60.845-1.1932-9.8501-17.247-3.6011-18.1-13.286-0.20453-16.878 5.1156-33.642 2.5896-50.552l-1.8637-2.9736z" stroke="#141414" stroke-linecap="round" stroke-width="16"/>
<path id="path4139" d="m587.92 68.649c-20.018-8.5906-41.406-13.904-62.007-21.09-18.126-7.8881-40.735 12.076-33.534 30.966 2.3505 16.442 20.999 18.385 33.065 24.738 6.1492 13.672 10.935 28.162 16.195 42.261 2.3859 4.9366-3.0391 12.455-8.3552 8.9062-59.54-35.146-118.45-71.357-178-106.48-16.838-9.0143-39.62-6.536-51.298 9.7052-16.243 22.891-32.566 45.843-47.369 69.696-8.074 11.823 3.1024 33.213-12.794 40.237-29.51 0.46204-61.831 4.254-87.982-12.578-17.01-11.455-34.26-22.594-50.927-34.537-8.9476-6.0287-2.2628-22.763 8.5379-21.555 26.166-0.84475 52.38 0.0272 78.561-0.3787 18.353-1.9193 38.009-13.378 40.726-33.185 5.4824-18.519-13.353-35.71-31.601-31.873-47.18 2.6975-98.162-9.3126-141.36 15.38l-1.5768 0.98827c-20.369 14.774-33.822 43.209-21.733 67.261l5.3421 8.5236c14.465 18.598 40.396 18.998 58.279 32.597 8.6385 8.0399 6.2489 20.348 7.1311 30.794 2.6542 8.4152 10.169 16.865 19.706 16.528 144.76-0.88209 289.52-0.14686 434.28 0.87694 6.1801 0.25726 12.315-0.59035 18.352-1.8243l13.245-8.3012c16.149-16.187 12.808-40.046 12.495-60.845-1.1932-9.8501-17.247-3.6011-18.1-13.286-0.20453-16.878 5.1156-33.642 2.5896-50.552l-1.8637-2.9736z" stroke="#fff" stroke-dasharray="6.40004133, 1.60001033" stroke-width="1.6"/>
</g>
</g>
</svg>
