<?xml version="1.0" encoding="UTF-8" standalone="no"?>
<svg id="svg4159" xmlns:rdf="http://www.w3.org/1999/02/22-rdf-syntax-ns#" xmlns="http://www.w3.org/2000/svg" height="497.73" viewBox="0 0 671.19483 497.73136" width="671.19" version="1.1" xmlns:cc="http://creativecommons.org/ns#" xmlns:dc="http://purl.org/dc/elements/1.1/">
<g id="g4141" stroke-linejoin="round" transform="translate(35.595 111.65)">
<path id="path4133" d="m66.163-71.636c-10.153 0.27871-18.894 1.5573-26.375 3.8331-8.4301 1.7824-16.38 5.6824-21.608 12.558-5.6482 5.8097-9.5954 13.182-12.054 22.17-4.0937 14.969-2.2541 16.699 20.42 19.203 9.1495 1.0104 17.419 2.4585 18.377 3.2195 6.7102 5.3294 14.783 3.0633 21.087-5.9223 3.711-5.2897 7.5786-7.1346 9.3217-4.4456 1.6882 2.6043 7.8565 51.315 8.1442 64.312 0.08958 4.0463 3.9346 7.0746 10.063 7.9269 2.9655 0.41245 34.596 4.4455 70.289 8.9614 66.79 8.4502 75.245 9.7916 85.774 13.601 4.879 1.7653 44.522 22.139 53.941 27.722 3.1136 1.8454 6.5644 8.5039 11.194 21.609 4.4302 12.542 8.0196 16.974 14.785 18.251 1.8707 0.35299 15.578 2.2226 30.463 4.1572 34.33 4.4619 42.264 8.4085 47.372 23.559 4.0906 12.133 11.801 20.447 27.759 29.931 5.5791 3.316 11.254 7.4496 12.609 9.1862l2.4643 3.1572-6.1583 61.053c-7.2028 71.403-7.0359 65.876-2.1388 70.258 7.4025 6.6227 10.499 5.4502 32.176-12.181 24.062-19.571 24.324-20.458 8.909-30.091-5.4341-3.3959-10.253-7.1403-10.711-8.3209-1.278-3.2967-2.797-0.62094 44.785-78.965 9.522-15.678 24.343-41.041 32.934-56.362 8.5917-15.321 19.316-34.44 23.833-42.486 15.252-27.168 21.901-47.899 21.777-67.914l-0.0686-10.962-8.0287-4.1536c-9.5027-4.917-9.6838-5.4443-7.1852-20.989 3.9519-24.586 7.2499-23.294-89.295-34.968-34.679-4.1931-76.276-9.271-92.439-11.283-16.162-2.0119-41.768-4.5077-56.901-5.5452-26.926-1.846-53.04-4.4618-135.84-13.608-57.17-6.537-99.62-16.821-139.67-16.477z" stroke="#006400" stroke-width="80" fill="#006400"/>
<g fill="none">
<path id="path4137" d="m66.163-71.636c-10.153 0.27871-18.894 1.5573-26.375 3.8331-8.4301 1.7824-16.38 5.6824-21.608 12.558-5.6482 5.8097-9.5954 13.182-12.054 22.17-4.0937 14.969-2.2541 16.699 20.42 19.203 9.1495 1.0104 17.419 2.4585 18.377 3.2195 6.7102 5.3294 14.783 3.0633 21.087-5.9223 3.711-5.2897 7.5786-7.1346 9.3217-4.4456 1.6882 2.6043 7.8565 51.315 8.1442 64.312 0.08958 4.0463 3.9346 7.0746 10.063 7.9269 2.9655 0.41245 34.596 4.4455 70.289 8.9614 66.79 8.4502 75.245 9.7916 85.774 13.601 4.879 1.7653 44.522 22.139 53.941 27.722 3.1136 1.8454 6.5644 8.5039 11.194 21.609 4.4302 12.542 8.0196 16.974 14.785 18.251 1.8707 0.35299 15.578 2.2226 30.463 4.1572 34.33 4.4619 42.264 8.4085 47.372 23.559 4.0906 12.133 11.801 20.447 27.759 29.931 5.5791 3.316 11.254 7.4496 12.609 9.1862l2.4643 3.1572-6.1583 61.053c-7.2028 71.403-7.0359 65.876-2.1388 70.258 7.4025 6.6227 10.499 5.4502 32.176-12.181 24.062-19.571 24.324-20.458 8.909-30.091-5.4341-3.3959-10.253-7.1403-10.711-8.3209-1.278-3.2967-2.797-0.62094 44.785-78.965 9.522-15.678 24.343-41.041 32.934-56.362 8.5917-15.321 19.316-34.44 23.833-42.486 15.252-27.168 21.901-47.899 21.777-67.914l-0.0686-10.962-8.0287-4.1536c-9.5027-4.917-9.6838-5.4443-7.1852-20.989 3.9519-24.586 7.2499-23.294-89.295-34.968-34.679-4.1931-76.276-9.271-92.439-11.283-16.162-2.0119-41.768-4.5077-56.901-5.5452-26.926-1.846-53.04-4.4618-135.84-13.608-57.17-6.537-99.62-16.821-139.67-16.477z" stroke="#f00" stroke-width="26"/>
<path id="path4135" d="m66.163-71.636c-10.153 0.27871-18.894 1.5573-26.375 3.8331-8.4301 1.7824-16.38 5.6824-21.608 12.558-5.6482 5.8097-9.5954 13.182-12.054 22.17-4.0937 14.969-2.2541 16.699 20.42 19.203 9.1495 1.0104 17.419 2.4585 18.377 3.2195 6.7102 5.3294 14.783 3.0633 21.087-5.9223 3.711-5.2897 7.5786-7.1346 9.3217-4.4456 1.6882 2.6043 7.8565 51.315 8.1442 64.312 0.08958 4.0463 3.9346 7.0746 10.063 7.9269 2.9655 0.41245 34.596 4.4455 70.289 8.9614 66.79 8.4502 75.245 9.7916 85.774 13.601 4.879 1.7653 44.522 22.139 53.941 27.722 3.1136 1.8454 6.5644 8.5039 11.194 21.609 4.4302 12.542 8.0196 16.974 14.785 18.251 1.8707 0.35299 15.578 2.2226 30.463 4.1572 34.33 4.4619 42.264 8.4085 47.372 23.559 4.0906 12.133 11.801 20.447 27.759 29.931 5.5791 3.316 11.254 7.4496 12.609 9.1862l2.4643 3.1572-6.1583 61.053c-7.2028 71.403-7.0359 65.876-2.1388 70.258 7.4025 6.6227 10.499 5.4502 32.176-12.181 24.062-19.571 24.324-20.458 8.909-30.091-5.4341-3.3959-10.253-7.1403-10.711-8.3209-1.278-3.2967-2.797-0.62094 44.785-78.965 9.522-15.678 24.343-41.041 32.934-56.362 8.5917-15.321 19.316-34.44 23.833-42.486 15.252-27.168 21.901-47.899 21.777-67.914l-0.0686-10.962-8.0287-4.1536c-9.5027-4.917-9.6838-5.4443-7.1852-20.989 3.9519-24.586 7.2499-23.294-89.295-34.968-34.679-4.1931-76.276-9.271-92.439-11.283-16.162-2.0119-41.768-4.5077-56.901-5.5452-26.926-1.846-53.04-4.4618-135.84-13.608-57.17-6.537-99.62-16.821-139.67-16.477z" stroke="#fff" stroke-dasharray="26, 26" stroke-width="26"/>
<path id="path4169" d="m66.163-71.636c-10.153 0.27871-18.894 1.5573-26.375 3.8331-8.4301 1.7824-16.38 5.6824-21.608 12.558-5.6482 5.8097-9.5954 13.182-12.054 22.17-4.0937 14.969-2.2541 16.699 20.42 19.203 9.1495 1.0104 17.419 2.4585 18.377 3.2195 6.7102 5.3294 14.783 3.0633 21.087-5.9223 3.711-5.2897 7.5786-7.1346 9.3217-4.4456 1.6882 2.6043 7.8565 51.315 8.1442 64.312 0.08958 4.0463 3.9346 7.0746 10.063 7.9269 2.9655 0.41245 34.596 4.4455 70.289 8.9614 66.79 8.4502 75.245 9.7916 85.774 13.601 4.879 1.7653 44.522 22.139 53.941 27.722 3.1136 1.8454 6.5644 8.5039 11.194 21.609 4.4302 12.542 8.0196 16.974 14.785 18.251 1.8707 0.35299 15.578 2.2226 30.463 4.1572 34.33 4.4619 42.264 8.4085 47.372 23.559 4.0906 12.133 11.801 20.447 27.759 29.931 5.5791 3.316 11.254 7.4496 12.609 9.1862l2.4643 3.1572-6.1583 61.053c-7.2028 71.403-7.0359 65.876-2.1388 70.258 7.4025 6.6227 10.499 5.4502 32.176-12.181 24.062-19.571 24.324-20.458 8.909-30.091-5.4341-3.3959-10.253-7.1403-10.711-8.3209-1.278-3.2967-2.797-0.62094 44.785-78.965 9.522-15.678 24.343-41.041 32.934-56.362 8.5917-15.321 19.316-34.44 23.833-42.486 15.252-27.168 21.901-47.899 21.777-67.914l-0.0686-10.962-8.0287-4.1536c-9.5027-4.917-9.6838-5.4443-7.1852-20.989 3.9519-24.586 7.2499-23.294-89.295-34.968-34.679-4.1931-76.276-9.271-92.439-11.283-16.162-2.0119-41.768-4.5077-56.901-5.5452-26.926-1.846-53.04-4.4618-135.84-13.608-57.17-6.537-99.62-16.821-139.67-16.477z" stroke="#141414" stroke-width="20"/>
<path id="path4139" d="m66.163-71.636c-10.153 0.27871-18.894 1.5573-26.375 3.8331-8.4301 1.7824-16.38 5.6824-21.608 12.558-5.6482 5.8097-9.5954 13.182-12.054 22.17-4.0937 14.969-2.2541 16.699 20.42 19.203 9.1495 1.0104 17.419 2.4585 18.377 3.2195 6.7102 5.3294 14.783 3.0633 21.087-5.9223 3.711-5.2897 7.5786-7.1346 9.3217-4.4456 1.6882 2.6043 7.8565 51.315 8.1442 64.312 0.08958 4.0463 3.9346 7.0746 10.063 7.9269 2.9655 0.41245 34.596 4.4455 70.289 8.9614 66.79 8.4502 75.245 9.7916 85.774 13.601 4.879 1.7653 44.522 22.139 53.941 27.722 3.1136 1.8454 6.5644 8.5039 11.194 21.609 4.4302 12.542 8.0196 16.974 14.785 18.251 1.8707 0.35299 15.578 2.2226 30.463 4.1572 34.33 4.4619 42.264 8.4085 47.372 23.559 4.0906 12.133 11.801 20.447 27.759 29.931 5.5791 3.316 11.254 7.4496 12.609 9.1862l2.4643 3.1572-6.1583 61.053c-7.2028 71.403-7.0359 65.876-2.1388 70.258 7.4025 6.6227 10.499 5.4502 32.176-12.181 24.062-19.571 24.324-20.458 8.909-30.091-5.4341-3.3959-10.253-7.1403-10.711-8.3209-1.278-3.2967-2.797-0.62094 44.785-78.965 9.522-15.678 24.343-41.041 32.934-56.362 8.5917-15.321 19.316-34.44 23.833-42.486 15.252-27.168 21.901-47.899 21.777-67.914l-0.0686-10.962-8.0287-4.1536c-9.5027-4.917-9.6838-5.4443-7.1852-20.989 3.9519-24.586 7.2499-23.294-89.295-34.968-34.679-4.1931-76.276-9.271-92.439-11.283-16.162-2.0119-41.768-4.5077-56.901-5.5452-26.926-1.846-53.04-4.4618-135.84-13.608-57.17-6.537-99.62-16.821-139.67-16.477z" stroke="#fff" stroke-dasharray="8, 2" stroke-width="2"/>
</g>
</g>
</svg>
